STARTFONT 2.1
COMMENT
COMMENT Converted from OpenType font "LeagueSpartan-Light.otf" by "otf2bdf 3.0".
COMMENT
FONT -FreeType-League Spartan Light-Medium-R-Normal--18-130-100-100-P-79-ISO10646-1
SIZE 13 100 100
FONTBOUNDINGBOX 22 23 -2 -4
STARTPROPERTIES 19
FOUNDRY "FreeType"
FAMILY_NAME "League Spartan Light"
WEIGHT_NAME "Medium"
SLANT "R"
SETWIDTH_NAME "Normal"
ADD_STYLE_NAME ""
PIXEL_SIZE 18
POINT_SIZE 130
RESOLUTION_X 100
RESOLUTION_Y 100
SPACING "P"
AVERAGE_WIDTH 79
CHARSET_REGISTRY "ISO10646"
CHARSET_ENCODING "1"
FONT_ASCENT 12
FONT_DESCENT 3
COPYRIGHT "OFL"
_OTF_FONTFILE "LeagueSpartan-Light.otf"
_OTF_PSNAME "LeagueSpartan-Light"
ENDPROPERTIES
CHARS 561
STARTCHAR 000D
ENCODING 13
SWIDTH 609 0
DWIDTH 11 0
BBX 0 0 0 0
BITMAP
ENDCHAR
STARTCHAR 0020
ENCODING 32
SWIDTH 221 0
DWIDTH 4 0
BBX 0 0 0 0
BITMAP
ENDCHAR
STARTCHAR 0021
ENCODING 33
SWIDTH 332 0
DWIDTH 6 0
BBX 2 13 2 0
BITMAP
80
80
80
80
80
80
80
80
80
80
00
C0
C0
ENDCHAR
STARTCHAR 0022
ENCODING 34
SWIDTH 387 0
DWIDTH 7 0
BBX 4 4 1 8
BITMAP
90
D0
90
90
ENDCHAR
STARTCHAR 0023
ENCODING 35
SWIDTH 609 0
DWIDTH 11 0
BBX 9 12 1 0
BITMAP
0900
1100
1200
7F80
1200
2200
2400
2400
FF00
4400
4800
4800
ENDCHAR
STARTCHAR 0024
ENCODING 36
SWIDTH 498 0
DWIDTH 9 0
BBX 7 16 1 -2
BITMAP
10
10
7C
C0
80
80
40
30
0C
02
02
02
86
7C
10
10
ENDCHAR
STARTCHAR 0025
ENCODING 37
SWIDTH 720 0
DWIDTH 13 0
BBX 11 12 1 0
BITMAP
0080
7100
9100
9200
6200
0400
0800
0980
1260
1220
21C0
4000
ENDCHAR
STARTCHAR 0026
ENCODING 38
SWIDTH 664 0
DWIDTH 12 0
BBX 10 12 1 0
BITMAP
1C00
2200
2200
2200
3600
1800
6800
8400
8280
8100
8680
7840
ENDCHAR
STARTCHAR 0027
ENCODING 39
SWIDTH 221 0
DWIDTH 4 0
BBX 1 4 1 8
BITMAP
80
80
80
80
ENDCHAR
STARTCHAR 0028
ENCODING 40
SWIDTH 276 0
DWIDTH 5 0
BBX 3 17 1 -4
BITMAP
20
20
40
40
40
80
80
80
80
80
80
80
80
40
40
20
20
ENDCHAR
STARTCHAR 0029
ENCODING 41
SWIDTH 276 0
DWIDTH 5 0
BBX 3 17 1 -4
BITMAP
80
80
80
40
40
40
20
20
20
20
20
40
40
40
40
80
80
ENDCHAR
STARTCHAR 002A
ENCODING 42
SWIDTH 443 0
DWIDTH 8 0
BBX 5 5 1 8
BITMAP
20
20
F8
30
50
ENDCHAR
STARTCHAR 002B
ENCODING 43
SWIDTH 553 0
DWIDTH 10 0
BBX 7 7 1 2
BITMAP
10
10
10
FE
10
10
10
ENDCHAR
STARTCHAR 002C
ENCODING 44
SWIDTH 276 0
DWIDTH 5 0
BBX 2 4 1 -2
BITMAP
C0
C0
40
80
ENDCHAR
STARTCHAR 002D
ENCODING 45
SWIDTH 387 0
DWIDTH 7 0
BBX 5 1 1 4
BITMAP
F8
ENDCHAR
STARTCHAR 002E
ENCODING 46
SWIDTH 332 0
DWIDTH 6 0
BBX 2 2 2 0
BITMAP
C0
C0
ENDCHAR
STARTCHAR 002F
ENCODING 47
SWIDTH 443 0
DWIDTH 8 0
BBX 6 14 1 -1
BITMAP
04
04
08
08
08
10
10
20
20
40
40
40
80
80
ENDCHAR
STARTCHAR 0030
ENCODING 48
SWIDTH 553 0
DWIDTH 10 0
BBX 8 12 1 0
BITMAP
3C
42
C1
81
81
81
81
81
81
C1
42
3C
ENDCHAR
STARTCHAR 0031
ENCODING 49
SWIDTH 276 0
DWIDTH 5 0
BBX 3 12 1 0
BITMAP
60
A0
20
20
20
20
20
20
20
20
20
20
ENDCHAR
STARTCHAR 0032
ENCODING 50
SWIDTH 553 0
DWIDTH 10 0
BBX 7 12 1 0
BITMAP
3C
C2
82
02
02
02
04
08
10
20
40
FE
ENDCHAR
STARTCHAR 0033
ENCODING 51
SWIDTH 498 0
DWIDTH 9 0
BBX 7 12 1 0
BITMAP
78
84
02
02
04
18
04
02
02
82
84
78
ENDCHAR
STARTCHAR 0034
ENCODING 52
SWIDTH 498 0
DWIDTH 9 0
BBX 8 12 0 0
BITMAP
04
04
0C
0C
14
24
24
44
44
FF
04
04
ENDCHAR
STARTCHAR 0035
ENCODING 53
SWIDTH 498 0
DWIDTH 9 0
BBX 7 12 1 0
BITMAP
7E
40
40
40
7C
C6
02
02
02
02
C6
78
ENDCHAR
STARTCHAR 0036
ENCODING 54
SWIDTH 553 0
DWIDTH 10 0
BBX 8 12 1 0
BITMAP
08
18
10
20
7C
C6
82
81
81
83
42
3C
ENDCHAR
STARTCHAR 0037
ENCODING 55
SWIDTH 498 0
DWIDTH 9 0
BBX 7 12 1 0
BITMAP
FE
02
04
04
08
08
10
30
20
40
40
80
ENDCHAR
STARTCHAR 0038
ENCODING 56
SWIDTH 553 0
DWIDTH 10 0
BBX 7 12 1 0
BITMAP
3C
46
42
42
44
38
46
82
82
82
46
3C
ENDCHAR
STARTCHAR 0039
ENCODING 57
SWIDTH 553 0
DWIDTH 10 0
BBX 8 12 1 0
BITMAP
3C
42
81
81
81
81
42
3E
04
08
10
20
ENDCHAR
STARTCHAR 003A
ENCODING 58
SWIDTH 276 0
DWIDTH 5 0
BBX 2 8 1 0
BITMAP
C0
C0
00
00
00
00
C0
C0
ENDCHAR
STARTCHAR 003B
ENCODING 59
SWIDTH 276 0
DWIDTH 5 0
BBX 2 10 1 -2
BITMAP
C0
C0
00
00
00
00
C0
C0
40
80
ENDCHAR
STARTCHAR 003C
ENCODING 60
SWIDTH 553 0
DWIDTH 10 0
BBX 7 8 1 2
BITMAP
02
0C
30
C0
C0
30
0C
02
ENDCHAR
STARTCHAR 003D
ENCODING 61
SWIDTH 498 0
DWIDTH 9 0
BBX 7 4 1 4
BITMAP
FE
00
00
FE
ENDCHAR
STARTCHAR 003E
ENCODING 62
SWIDTH 553 0
DWIDTH 10 0
BBX 7 8 1 2
BITMAP
80
60
18
06
06
18
60
80
ENDCHAR
STARTCHAR 003F
ENCODING 63
SWIDTH 443 0
DWIDTH 8 0
BBX 6 12 1 0
BITMAP
78
84
04
04
08
10
20
20
20
00
30
30
ENDCHAR
STARTCHAR 0040
ENCODING 64
SWIDTH 775 0
DWIDTH 14 0
BBX 13 12 0 0
BITMAP
0FC0
1020
2010
4748
48C8
9048
9048
48C8
4730
2000
1020
0FC0
ENDCHAR
STARTCHAR 0041
ENCODING 65
SWIDTH 553 0
DWIDTH 10 0
BBX 10 12 0 0
BITMAP
0C00
0C00
0A00
1200
1200
1100
2100
2100
3F80
4080
4080
C040
ENDCHAR
STARTCHAR 0042
ENCODING 66
SWIDTH 498 0
DWIDTH 9 0
BBX 7 12 1 0
BITMAP
F8
84
82
82
84
FC
84
82
82
82
82
FC
ENDCHAR
STARTCHAR 0043
ENCODING 67
SWIDTH 609 0
DWIDTH 11 0
BBX 9 12 1 0
BITMAP
1F00
2080
4000
8000
8000
8000
8000
8000
8000
4000
2080
1F00
ENDCHAR
STARTCHAR 0044
ENCODING 68
SWIDTH 553 0
DWIDTH 10 0
BBX 8 12 1 0
BITMAP
F8
84
82
81
81
81
81
81
81
82
86
F8
ENDCHAR
STARTCHAR 0045
ENCODING 69
SWIDTH 498 0
DWIDTH 9 0
BBX 7 12 1 0
BITMAP
FE
80
80
80
80
FE
80
80
80
80
80
FE
ENDCHAR
STARTCHAR 0046
ENCODING 70
SWIDTH 443 0
DWIDTH 8 0
BBX 6 12 1 0
BITMAP
FC
80
80
80
80
FC
80
80
80
80
80
80
ENDCHAR
STARTCHAR 0047
ENCODING 71
SWIDTH 720 0
DWIDTH 13 0
BBX 12 12 0 0
BITMAP
0F80
30C0
2020
4000
4000
8000
83F0
4010
4010
6020
3040
0F80
ENDCHAR
STARTCHAR 0048
ENCODING 72
SWIDTH 609 0
DWIDTH 11 0
BBX 9 12 1 0
BITMAP
8080
8080
8080
8080
8080
FF80
8080
8080
8080
8080
8080
8080
ENDCHAR
STARTCHAR 0049
ENCODING 73
SWIDTH 221 0
DWIDTH 4 0
BBX 1 12 1 0
BITMAP
80
80
80
80
80
80
80
80
80
80
80
80
ENDCHAR
STARTCHAR 004A
ENCODING 74
SWIDTH 387 0
DWIDTH 7 0
BBX 6 12 0 0
BITMAP
04
04
04
04
04
04
04
04
04
04
88
70
ENDCHAR
STARTCHAR 004B
ENCODING 75
SWIDTH 498 0
DWIDTH 9 0
BBX 7 12 1 0
BITMAP
84
84
88
90
A0
E0
E0
A0
90
88
84
82
ENDCHAR
STARTCHAR 004C
ENCODING 76
SWIDTH 443 0
DWIDTH 8 0
BBX 6 12 1 0
BITMAP
80
80
80
80
80
80
80
80
80
80
80
FC
ENDCHAR
STARTCHAR 004D
ENCODING 77
SWIDTH 720 0
DWIDTH 13 0
BBX 10 12 1 0
BITMAP
8040
C0C0
C0C0
A140
A140
A140
9240
9240
9240
8C40
8C40
8040
ENDCHAR
STARTCHAR 004E
ENCODING 78
SWIDTH 664 0
DWIDTH 12 0
BBX 9 12 1 0
BITMAP
C080
C080
A080
9080
9080
8880
8C80
8480
8280
8280
8180
8080
ENDCHAR
STARTCHAR 004F
ENCODING 79
SWIDTH 720 0
DWIDTH 13 0
BBX 12 12 0 0
BITMAP
0F80
30C0
6020
4030
4010
8010
8010
4010
4030
6020
3040
0F80
ENDCHAR
STARTCHAR 0050
ENCODING 80
SWIDTH 498 0
DWIDTH 9 0
BBX 7 12 1 0
BITMAP
F8
86
82
82
82
86
F8
80
80
80
80
80
ENDCHAR
STARTCHAR 0051
ENCODING 81
SWIDTH 720 0
DWIDTH 13 0
BBX 12 14 0 -2
BITMAP
0F80
30C0
6020
4030
4010
8010
8010
4010
4030
6020
3040
0F80
0F10
00F0
ENDCHAR
STARTCHAR 0052
ENCODING 82
SWIDTH 553 0
DWIDTH 10 0
BBX 7 12 1 0
BITMAP
FC
82
82
82
82
86
FC
88
84
84
82
82
ENDCHAR
STARTCHAR 0053
ENCODING 83
SWIDTH 498 0
DWIDTH 9 0
BBX 7 12 1 0
BITMAP
7C
C0
80
80
40
30
0C
02
02
02
86
7C
ENDCHAR
STARTCHAR 0054
ENCODING 84
SWIDTH 498 0
DWIDTH 9 0
BBX 8 12 0 0
BITMAP
FF
08
08
08
08
08
08
08
08
08
08
08
ENDCHAR
STARTCHAR 0055
ENCODING 85
SWIDTH 609 0
DWIDTH 11 0
BBX 9 12 1 0
BITMAP
8080
8080
8080
8080
8080
8080
8080
8080
8080
C100
4300
3E00
ENDCHAR
STARTCHAR 0056
ENCODING 86
SWIDTH 609 0
DWIDTH 11 0
BBX 10 12 0 0
BITMAP
8040
4040
4080
6080
2080
2100
1100
1300
1200
0A00
0C00
0C00
ENDCHAR
STARTCHAR 0057
ENCODING 87
SWIDTH 775 0
DWIDTH 14 0
BBX 13 12 0 0
BITMAP
C208
4308
4508
4510
4510
4490
2890
2890
28A0
2860
3060
1060
ENDCHAR
STARTCHAR 0058
ENCODING 88
SWIDTH 553 0
DWIDTH 10 0
BBX 10 12 0 0
BITMAP
4080
2100
2100
1200
0C00
0C00
0C00
1200
3300
2100
4080
C0C0
ENDCHAR
STARTCHAR 0059
ENCODING 89
SWIDTH 553 0
DWIDTH 10 0
BBX 9 12 0 0
BITMAP
C080
4100
6100
2200
3200
1400
1C00
0800
0800
0800
0800
0800
ENDCHAR
STARTCHAR 005A
ENCODING 90
SWIDTH 553 0
DWIDTH 10 0
BBX 8 12 1 0
BITMAP
FF
02
02
04
08
08
10
30
20
40
C0
FF
ENDCHAR
STARTCHAR 005B
ENCODING 91
SWIDTH 332 0
DWIDTH 6 0
BBX 4 17 1 -4
BITMAP
F0
80
80
80
80
80
80
80
80
80
80
80
80
80
80
80
F0
ENDCHAR
STARTCHAR 005C
ENCODING 92
SWIDTH 443 0
DWIDTH 8 0
BBX 6 13 1 0
BITMAP
80
80
40
40
20
20
10
10
10
08
08
04
04
ENDCHAR
STARTCHAR 005D
ENCODING 93
SWIDTH 332 0
DWIDTH 6 0
BBX 3 17 1 -4
BITMAP
E0
20
20
20
20
20
20
20
20
20
20
20
20
20
20
20
E0
ENDCHAR
STARTCHAR 005E
ENCODING 94
SWIDTH 443 0
DWIDTH 8 0
BBX 5 3 1 9
BITMAP
30
50
88
ENDCHAR
STARTCHAR 005F
ENCODING 95
SWIDTH 387 0
DWIDTH 7 0
BBX 7 1 0 -1
BITMAP
FE
ENDCHAR
STARTCHAR 0060
ENCODING 96
SWIDTH 332 0
DWIDTH 6 0
BBX 3 2 2 10
BITMAP
C0
60
ENDCHAR
STARTCHAR 0061
ENCODING 97
SWIDTH 498 0
DWIDTH 9 0
BBX 8 8 0 0
BITMAP
3D
63
41
41
81
41
63
3D
ENDCHAR
STARTCHAR 0062
ENCODING 98
SWIDTH 498 0
DWIDTH 9 0
BBX 8 13 1 0
BITMAP
80
80
80
80
80
BC
C2
82
81
81
82
C2
BC
ENDCHAR
STARTCHAR 0063
ENCODING 99
SWIDTH 387 0
DWIDTH 7 0
BBX 5 8 1 0
BITMAP
78
C0
80
80
80
80
C0
78
ENDCHAR
STARTCHAR 0064
ENCODING 100
SWIDTH 498 0
DWIDTH 9 0
BBX 7 13 1 0
BITMAP
02
02
02
02
02
3A
C6
82
82
82
82
C6
7A
ENDCHAR
STARTCHAR 0065
ENCODING 101
SWIDTH 443 0
DWIDTH 8 0
BBX 8 8 0 0
BITMAP
3C
42
42
FF
40
40
42
3C
ENDCHAR
STARTCHAR 0066
ENCODING 102
SWIDTH 332 0
DWIDTH 6 0
BBX 6 13 0 0
BITMAP
1C
20
20
20
20
F8
20
20
20
20
20
20
20
ENDCHAR
STARTCHAR 0067
ENCODING 103
SWIDTH 498 0
DWIDTH 9 0
BBX 8 12 0 -4
BITMAP
3D
63
41
41
81
41
63
3D
01
01
42
3C
ENDCHAR
STARTCHAR 0068
ENCODING 104
SWIDTH 498 0
DWIDTH 9 0
BBX 7 13 1 0
BITMAP
80
80
80
80
80
B8
C4
82
82
82
82
82
82
ENDCHAR
STARTCHAR 0069
ENCODING 105
SWIDTH 221 0
DWIDTH 4 0
BBX 2 12 1 0
BITMAP
C0
80
00
00
80
80
80
80
80
80
80
80
ENDCHAR
STARTCHAR 006A
ENCODING 106
SWIDTH 221 0
DWIDTH 4 0
BBX 4 16 -1 -4
BITMAP
30
00
00
00
30
30
30
30
30
30
30
30
30
30
20
E0
ENDCHAR
STARTCHAR 006B
ENCODING 107
SWIDTH 387 0
DWIDTH 7 0
BBX 5 13 1 0
BITMAP
80
80
80
80
80
88
90
A0
C0
C0
A0
90
88
ENDCHAR
STARTCHAR 006C
ENCODING 108
SWIDTH 221 0
DWIDTH 4 0
BBX 1 13 1 0
BITMAP
80
80
80
80
80
80
80
80
80
80
80
80
80
ENDCHAR
STARTCHAR 006D
ENCODING 109
SWIDTH 720 0
DWIDTH 13 0
BBX 11 8 1 0
BITMAP
B9C0
CE60
8420
8420
8420
8420
8420
8420
ENDCHAR
STARTCHAR 006E
ENCODING 110
SWIDTH 498 0
DWIDTH 9 0
BBX 7 8 1 0
BITMAP
B8
C4
82
82
82
82
82
82
ENDCHAR
STARTCHAR 006F
ENCODING 111
SWIDTH 498 0
DWIDTH 9 0
BBX 8 8 0 0
BITMAP
3C
62
41
41
81
41
62
3C
ENDCHAR
STARTCHAR 0070
ENCODING 112
SWIDTH 498 0
DWIDTH 9 0
BBX 8 12 1 -4
BITMAP
BC
C2
82
81
81
82
C2
BC
80
80
80
80
ENDCHAR
STARTCHAR 0071
ENCODING 113
SWIDTH 498 0
DWIDTH 9 0
BBX 7 12 1 -4
BITMAP
7A
C6
82
82
82
82
C6
7A
02
02
02
02
ENDCHAR
STARTCHAR 0072
ENCODING 114
SWIDTH 332 0
DWIDTH 6 0
BBX 5 8 1 0
BITMAP
B8
C0
80
80
80
80
80
80
ENDCHAR
STARTCHAR 0073
ENCODING 115
SWIDTH 387 0
DWIDTH 7 0
BBX 5 8 1 0
BITMAP
70
80
80
60
18
08
08
F0
ENDCHAR
STARTCHAR 0074
ENCODING 116
SWIDTH 332 0
DWIDTH 6 0
BBX 5 11 0 0
BITMAP
20
20
20
F8
20
20
20
20
20
20
38
ENDCHAR
STARTCHAR 0075
ENCODING 117
SWIDTH 498 0
DWIDTH 9 0
BBX 7 8 1 0
BITMAP
82
82
82
82
82
84
C4
78
ENDCHAR
STARTCHAR 0076
ENCODING 118
SWIDTH 498 0
DWIDTH 9 0
BBX 8 8 0 0
BITMAP
C1
42
42
24
24
24
18
18
ENDCHAR
STARTCHAR 0077
ENCODING 119
SWIDTH 609 0
DWIDTH 11 0
BBX 9 8 1 0
BITMAP
8880
9880
9480
9480
5500
6300
6300
6300
ENDCHAR
STARTCHAR 0078
ENCODING 120
SWIDTH 498 0
DWIDTH 9 0
BBX 7 8 1 0
BITMAP
84
4C
28
30
30
48
44
86
ENDCHAR
STARTCHAR 0079
ENCODING 121
SWIDTH 443 0
DWIDTH 8 0
BBX 7 12 0 -4
BITMAP
82
42
42
24
24
28
18
10
10
10
20
20
ENDCHAR
STARTCHAR 007A
ENCODING 122
SWIDTH 387 0
DWIDTH 7 0
BBX 6 8 1 0
BITMAP
F8
08
10
20
20
40
80
FC
ENDCHAR
STARTCHAR 007B
ENCODING 123
SWIDTH 332 0
DWIDTH 6 0
BBX 4 17 1 -4
BITMAP
30
40
40
40
40
40
40
40
80
40
40
40
40
40
40
40
30
ENDCHAR
STARTCHAR 007C
ENCODING 124
SWIDTH 166 0
DWIDTH 3 0
BBX 1 15 1 -2
BITMAP
80
80
80
80
80
80
80
80
80
80
80
80
80
80
80
ENDCHAR
STARTCHAR 007D
ENCODING 125
SWIDTH 387 0
DWIDTH 7 0
BBX 4 17 2 -4
BITMAP
C0
40
40
40
40
40
40
40
30
40
40
40
40
40
40
40
C0
ENDCHAR
STARTCHAR 007E
ENCODING 126
SWIDTH 609 0
DWIDTH 11 0
BBX 8 3 1 5
BITMAP
71
C9
86
ENDCHAR
STARTCHAR 00A0
ENCODING 160
SWIDTH 221 0
DWIDTH 4 0
BBX 0 0 0 0
BITMAP
ENDCHAR
STARTCHAR 00A1
ENCODING 161
SWIDTH 332 0
DWIDTH 6 0
BBX 2 13 2 -1
BITMAP
C0
C0
00
80
80
80
80
80
80
80
80
80
80
ENDCHAR
STARTCHAR 00A2
ENCODING 162
SWIDTH 387 0
DWIDTH 7 0
BBX 5 12 1 -2
BITMAP
10
10
78
C0
80
80
80
80
C0
78
10
10
ENDCHAR
STARTCHAR 00A3
ENCODING 163
SWIDTH 609 0
DWIDTH 11 0
BBX 8 12 1 0
BITMAP
3C
63
41
40
40
40
FC
20
20
70
89
87
ENDCHAR
STARTCHAR 00A4
ENCODING 164
SWIDTH 498 0
DWIDTH 9 0
BBX 8 8 0 1
BITMAP
BD
62
41
41
41
41
62
9D
ENDCHAR
STARTCHAR 00A5
ENCODING 165
SWIDTH 553 0
DWIDTH 10 0
BBX 9 12 0 0
BITMAP
C080
4100
6100
2200
1600
1400
7F80
0800
7F80
0800
0800
0800
ENDCHAR
STARTCHAR 00A6
ENCODING 166
SWIDTH 166 0
DWIDTH 3 0
BBX 1 13 1 0
BITMAP
80
80
80
80
80
00
00
00
80
80
80
80
80
ENDCHAR
STARTCHAR 00A7
ENCODING 167
SWIDTH 553 0
DWIDTH 10 0
BBX 7 16 1 -4
BITMAP
3C
42
40
40
60
38
46
82
C2
62
1C
04
02
02
84
78
ENDCHAR
STARTCHAR 00A8
ENCODING 168
SWIDTH 498 0
DWIDTH 9 0
BBX 5 2 2 9
BITMAP
98
80
ENDCHAR
STARTCHAR 00A9
ENCODING 169
SWIDTH 775 0
DWIDTH 14 0
BBX 13 12 0 0
BITMAP
0F80
3060
4010
4310
8C08
8808
8808
8808
4710
4010
3020
0FC0
ENDCHAR
STARTCHAR 00AA
ENCODING 170
SWIDTH 387 0
DWIDTH 7 0
BBX 5 5 1 7
BITMAP
78
88
88
88
78
ENDCHAR
STARTCHAR 00AB
ENCODING 171
SWIDTH 498 0
DWIDTH 9 0
BBX 6 6 1 2
BITMAP
44
48
90
88
48
24
ENDCHAR
STARTCHAR 00AC
ENCODING 172
SWIDTH 387 0
DWIDTH 7 0
BBX 5 3 1 2
BITMAP
F8
08
08
ENDCHAR
STARTCHAR 00AD
ENCODING 173
SWIDTH 387 0
DWIDTH 7 0
BBX 5 1 1 4
BITMAP
F8
ENDCHAR
STARTCHAR 00AE
ENCODING 174
SWIDTH 443 0
DWIDTH 8 0
BBX 7 7 0 5
BITMAP
38
44
BA
B2
8A
44
38
ENDCHAR
STARTCHAR 00AF
ENCODING 175
SWIDTH 498 0
DWIDTH 9 0
BBX 5 1 2 10
BITMAP
F8
ENDCHAR
STARTCHAR 00B0
ENCODING 176
SWIDTH 276 0
DWIDTH 5 0
BBX 3 2 1 10
BITMAP
E0
E0
ENDCHAR
STARTCHAR 00B1
ENCODING 177
SWIDTH 553 0
DWIDTH 10 0
BBX 7 10 1 1
BITMAP
10
10
10
FE
10
10
10
00
00
FE
ENDCHAR
STARTCHAR 00B2
ENCODING 178
SWIDTH 221 0
DWIDTH 4 0
BBX 3 4 1 8
BITMAP
C0
20
40
C0
ENDCHAR
STARTCHAR 00B3
ENCODING 179
SWIDTH 221 0
DWIDTH 4 0
BBX 3 4 0 8
BITMAP
20
20
20
E0
ENDCHAR
STARTCHAR 00B4
ENCODING 180
SWIDTH 498 0
DWIDTH 9 0
BBX 3 2 2 10
BITMAP
20
C0
ENDCHAR
STARTCHAR 00B5
ENCODING 181
SWIDTH 498 0
DWIDTH 9 0
BBX 7 11 1 -3
BITMAP
82
82
82
82
82
84
C4
F8
80
80
80
ENDCHAR
STARTCHAR 00B6
ENCODING 182
SWIDTH 498 0
DWIDTH 9 0
BBX 6 12 1 0
BITMAP
7C
F4
F4
F4
F4
74
14
14
14
14
14
14
ENDCHAR
STARTCHAR 00B7
ENCODING 183
SWIDTH 276 0
DWIDTH 5 0
BBX 2 2 1 3
BITMAP
C0
C0
ENDCHAR
STARTCHAR 00B8
ENCODING 184
SWIDTH 387 0
DWIDTH 7 0
BBX 3 4 2 -3
BITMAP
80
E0
20
E0
ENDCHAR
STARTCHAR 00B9
ENCODING 185
SWIDTH 110 0
DWIDTH 2 0
BBX 1 5 1 7
BITMAP
80
80
80
80
80
ENDCHAR
STARTCHAR 00BA
ENCODING 186
SWIDTH 443 0
DWIDTH 8 0
BBX 5 5 1 7
BITMAP
70
88
88
88
70
ENDCHAR
STARTCHAR 00BB
ENCODING 187
SWIDTH 498 0
DWIDTH 9 0
BBX 6 6 1 2
BITMAP
90
48
24
44
88
90
ENDCHAR
STARTCHAR 00BC
ENCODING 188
SWIDTH 664 0
DWIDTH 12 0
BBX 9 12 2 0
BITMAP
8200
8200
8400
8400
8800
9100
9300
2300
2500
4500
4780
8100
ENDCHAR
STARTCHAR 00BD
ENCODING 189
SWIDTH 720 0
DWIDTH 13 0
BBX 10 12 2 0
BITMAP
8200
8200
8400
8400
8800
89C0
9240
2040
2040
4080
4100
83C0
ENDCHAR
STARTCHAR 00BE
ENCODING 190
SWIDTH 720 0
DWIDTH 13 0
BBX 11 12 1 0
BITMAP
E040
1080
1080
2100
1100
1240
E440
04C0
0940
0940
11E0
1040
ENDCHAR
STARTCHAR 00BF
ENCODING 191
SWIDTH 443 0
DWIDTH 8 0
BBX 7 12 0 0
BITMAP
18
18
00
10
10
10
30
40
C0
80
46
3C
ENDCHAR
STARTCHAR 00C0
ENCODING 192
SWIDTH 553 0
DWIDTH 10 0
BBX 10 15 0 0
BITMAP
1000
0C00
0000
0C00
0C00
0A00
1200
1200
1100
2100
2100
3F80
4080
4080
C040
ENDCHAR
STARTCHAR 00C1
ENCODING 193
SWIDTH 553 0
DWIDTH 10 0
BBX 10 15 0 0
BITMAP
0200
0400
0800
0C00
0C00
0A00
1200
1200
1100
2100
2100
3F80
4080
4080
C040
ENDCHAR
STARTCHAR 00C2
ENCODING 194
SWIDTH 553 0
DWIDTH 10 0
BBX 10 15 0 0
BITMAP
0C00
1300
0000
0C00
0C00
0A00
1200
1200
1100
2100
2100
3F80
4080
4080
C040
ENDCHAR
STARTCHAR 00C3
ENCODING 195
SWIDTH 553 0
DWIDTH 10 0
BBX 10 15 0 0
BITMAP
1900
3E00
0000
0C00
0C00
0A00
1200
1200
1100
2100
2100
3F80
4080
4080
C040
ENDCHAR
STARTCHAR 00C4
ENCODING 196
SWIDTH 553 0
DWIDTH 10 0
BBX 10 15 0 0
BITMAP
1000
1300
0000
0C00
0C00
0A00
1200
1200
1100
2100
2100
3F80
4080
4080
C040
ENDCHAR
STARTCHAR 00C5
ENCODING 197
SWIDTH 553 0
DWIDTH 10 0
BBX 10 16 0 0
BITMAP
0400
1A00
0C00
0000
0C00
0C00
0A00
1200
1200
1100
2100
2100
3F80
4080
4080
C040
ENDCHAR
STARTCHAR 00C6
ENCODING 198
SWIDTH 830 0
DWIDTH 15 0
BBX 14 12 0 0
BITMAP
01FC
0300
0500
0500
0900
09FC
1100
1100
3F00
2100
4100
81FC
ENDCHAR
STARTCHAR 00C7
ENCODING 199
SWIDTH 609 0
DWIDTH 11 0
BBX 9 16 1 -4
BITMAP
1F00
2080
4000
8000
8000
8000
8000
8000
8000
4000
2080
1F00
0400
0600
0100
0E00
ENDCHAR
STARTCHAR 00C8
ENCODING 200
SWIDTH 498 0
DWIDTH 9 0
BBX 7 15 1 0
BITMAP
60
30
00
FE
80
80
80
80
FE
80
80
80
80
80
FE
ENDCHAR
STARTCHAR 00C9
ENCODING 201
SWIDTH 498 0
DWIDTH 9 0
BBX 7 15 1 0
BITMAP
0C
10
00
FE
80
80
80
80
FE
80
80
80
80
80
FE
ENDCHAR
STARTCHAR 00CA
ENCODING 202
SWIDTH 498 0
DWIDTH 9 0
BBX 7 15 1 0
BITMAP
38
6C
00
FE
80
80
80
80
FE
80
80
80
80
80
FE
ENDCHAR
STARTCHAR 00CB
ENCODING 203
SWIDTH 498 0
DWIDTH 9 0
BBX 7 15 1 0
BITMAP
44
64
00
FE
80
80
80
80
FE
80
80
80
80
80
FE
ENDCHAR
STARTCHAR 00CC
ENCODING 204
SWIDTH 221 0
DWIDTH 4 0
BBX 3 15 -1 0
BITMAP
C0
20
00
20
20
20
20
20
20
20
20
20
20
20
20
ENDCHAR
STARTCHAR 00CD
ENCODING 205
SWIDTH 221 0
DWIDTH 4 0
BBX 3 15 1 0
BITMAP
60
C0
00
80
80
80
80
80
80
80
80
80
80
80
80
ENDCHAR
STARTCHAR 00CE
ENCODING 206
SWIDTH 221 0
DWIDTH 4 0
BBX 5 15 -1 0
BITMAP
30
C8
00
20
20
20
20
20
20
20
20
20
20
20
20
ENDCHAR
STARTCHAR 00CF
ENCODING 207
SWIDTH 221 0
DWIDTH 4 0
BBX 5 15 -1 0
BITMAP
08
C8
00
20
20
20
20
20
20
20
20
20
20
20
20
ENDCHAR
STARTCHAR 00D0
ENCODING 208
SWIDTH 553 0
DWIDTH 10 0
BBX 9 12 0 0
BITMAP
7C00
4200
4100
4180
4080
4080
F880
4080
4080
4100
4300
7C00
ENDCHAR
STARTCHAR 00D1
ENCODING 209
SWIDTH 664 0
DWIDTH 12 0
BBX 9 16 1 0
BITMAP
1900
1600
0000
0000
C080
C080
A080
9080
9080
8880
8C80
8480
8280
8280
8180
8080
ENDCHAR
STARTCHAR 00D2
ENCODING 210
SWIDTH 720 0
DWIDTH 13 0
BBX 12 15 0 0
BITMAP
0800
0400
0200
0F80
30C0
6020
4030
4010
8010
8010
4010
4030
6020
3040
0F80
ENDCHAR
STARTCHAR 00D3
ENCODING 211
SWIDTH 720 0
DWIDTH 13 0
BBX 12 15 0 0
BITMAP
0100
0200
0400
0F80
30C0
6020
4030
4010
8010
8010
4010
4030
6020
3040
0F80
ENDCHAR
STARTCHAR 00D4
ENCODING 212
SWIDTH 720 0
DWIDTH 13 0
BBX 12 15 0 0
BITMAP
0600
0D00
0000
0F80
30C0
6020
4030
4010
8010
8010
4010
4030
6020
3040
0F80
ENDCHAR
STARTCHAR 00D5
ENCODING 213
SWIDTH 720 0
DWIDTH 13 0
BBX 12 16 0 0
BITMAP
0480
0F80
0100
0000
0F80
30C0
6020
4030
4010
8010
8010
4010
4030
6020
3040
0F80
ENDCHAR
STARTCHAR 00D6
ENCODING 214
SWIDTH 720 0
DWIDTH 13 0
BBX 12 15 0 0
BITMAP
0800
0980
0000
0F80
30C0
6020
4030
4010
8010
8010
4010
4030
6020
3040
0F80
ENDCHAR
STARTCHAR 00D7
ENCODING 215
SWIDTH 498 0
DWIDTH 9 0
BBX 6 6 1 2
BITMAP
84
4C
38
30
68
C4
ENDCHAR
STARTCHAR 00D8
ENCODING 216
SWIDTH 720 0
DWIDTH 13 0
BBX 12 12 0 0
BITMAP
0F90
30E0
6060
40B0
4110
8210
8410
4810
5030
6020
7040
8F80
ENDCHAR
STARTCHAR 00D9
ENCODING 217
SWIDTH 609 0
DWIDTH 11 0
BBX 9 15 1 0
BITMAP
3000
1800
0000
8080
8080
8080
8080
8080
8080
8080
8080
8080
C100
4300
3E00
ENDCHAR
STARTCHAR 00DA
ENCODING 218
SWIDTH 609 0
DWIDTH 11 0
BBX 9 15 1 0
BITMAP
0400
0800
0000
8080
8080
8080
8080
8080
8080
8080
8080
8080
C100
4300
3E00
ENDCHAR
STARTCHAR 00DB
ENCODING 219
SWIDTH 609 0
DWIDTH 11 0
BBX 9 15 1 0
BITMAP
1800
2600
0000
8080
8080
8080
8080
8080
8080
8080
8080
8080
C100
4300
3E00
ENDCHAR
STARTCHAR 00DC
ENCODING 220
SWIDTH 609 0
DWIDTH 11 0
BBX 9 15 1 0
BITMAP
2000
2600
0000
8080
8080
8080
8080
8080
8080
8080
8080
8080
C100
4300
3E00
ENDCHAR
STARTCHAR 00DD
ENCODING 221
SWIDTH 553 0
DWIDTH 10 0
BBX 9 15 0 0
BITMAP
0600
0800
0000
C080
4100
6100
2200
3200
1400
1C00
0800
0800
0800
0800
0800
ENDCHAR
STARTCHAR 00DE
ENCODING 222
SWIDTH 498 0
DWIDTH 9 0
BBX 7 12 1 0
BITMAP
80
80
F8
84
82
82
82
82
84
F8
80
80
ENDCHAR
STARTCHAR 00DF
ENCODING 223
SWIDTH 498 0
DWIDTH 9 0
BBX 7 13 1 0
BITMAP
38
44
84
84
84
88
98
84
82
82
82
84
98
ENDCHAR
STARTCHAR 00E0
ENCODING 224
SWIDTH 498 0
DWIDTH 9 0
BBX 8 12 0 0
BITMAP
10
0C
00
00
3D
63
41
41
81
41
63
3D
ENDCHAR
STARTCHAR 00E1
ENCODING 225
SWIDTH 498 0
DWIDTH 9 0
BBX 8 12 0 0
BITMAP
04
08
10
00
3D
63
41
41
81
41
63
3D
ENDCHAR
STARTCHAR 00E2
ENCODING 226
SWIDTH 498 0
DWIDTH 9 0
BBX 8 11 0 0
BITMAP
1C
36
00
3D
63
41
41
81
41
63
3D
ENDCHAR
STARTCHAR 00E3
ENCODING 227
SWIDTH 498 0
DWIDTH 9 0
BBX 8 12 0 0
BITMAP
11
3E
04
00
3D
63
41
41
81
41
63
3D
ENDCHAR
STARTCHAR 00E4
ENCODING 228
SWIDTH 498 0
DWIDTH 9 0
BBX 8 11 0 0
BITMAP
02
32
00
3D
63
41
41
81
41
63
3D
ENDCHAR
STARTCHAR 00E5
ENCODING 229
SWIDTH 498 0
DWIDTH 9 0
BBX 8 12 0 0
BITMAP
08
14
1C
00
3D
63
41
41
81
41
63
3D
ENDCHAR
STARTCHAR 00E6
ENCODING 230
SWIDTH 720 0
DWIDTH 13 0
BBX 11 8 1 0
BITMAP
F3C0
8C20
0420
77E0
8C00
8400
8C20
73C0
ENDCHAR
STARTCHAR 00E7
ENCODING 231
SWIDTH 387 0
DWIDTH 7 0
BBX 5 12 1 -4
BITMAP
78
C0
80
80
80
80
C0
78
20
30
08
70
ENDCHAR
STARTCHAR 00E8
ENCODING 232
SWIDTH 443 0
DWIDTH 8 0
BBX 8 12 0 0
BITMAP
10
08
04
00
3C
42
42
FF
40
40
42
3C
ENDCHAR
STARTCHAR 00E9
ENCODING 233
SWIDTH 443 0
DWIDTH 8 0
BBX 8 12 0 0
BITMAP
04
18
00
00
3C
42
42
FF
40
40
42
3C
ENDCHAR
STARTCHAR 00EA
ENCODING 234
SWIDTH 443 0
DWIDTH 8 0
BBX 8 11 0 0
BITMAP
18
26
00
3C
42
42
FF
40
40
42
3C
ENDCHAR
STARTCHAR 00EB
ENCODING 235
SWIDTH 443 0
DWIDTH 8 0
BBX 8 11 0 0
BITMAP
20
26
00
3C
42
42
FF
40
40
42
3C
ENDCHAR
STARTCHAR 00EC
ENCODING 236
SWIDTH 166 0
DWIDTH 3 0
BBX 3 12 0 0
BITMAP
C0
60
00
00
40
40
40
40
40
40
40
40
ENDCHAR
STARTCHAR 00ED
ENCODING 237
SWIDTH 166 0
DWIDTH 3 0
BBX 3 12 0 0
BITMAP
20
C0
00
00
40
40
40
40
40
40
40
40
ENDCHAR
STARTCHAR 00EE
ENCODING 238
SWIDTH 166 0
DWIDTH 3 0
BBX 5 11 -1 1
BITMAP
70
88
00
20
20
20
20
20
20
20
20
ENDCHAR
STARTCHAR 00EF
ENCODING 239
SWIDTH 166 0
DWIDTH 3 0
BBX 5 11 -1 0
BITMAP
08
C8
00
20
20
20
20
20
20
20
20
ENDCHAR
STARTCHAR 00F0
ENCODING 240
SWIDTH 553 0
DWIDTH 10 0
BBX 8 13 1 0
BITMAP
08
78
38
64
02
3E
43
81
81
81
81
42
3C
ENDCHAR
STARTCHAR 00F1
ENCODING 241
SWIDTH 498 0
DWIDTH 9 0
BBX 7 12 1 0
BITMAP
24
7C
08
00
B8
C4
82
82
82
82
82
82
ENDCHAR
STARTCHAR 00F2
ENCODING 242
SWIDTH 498 0
DWIDTH 9 0
BBX 8 12 0 0
BITMAP
10
08
04
00
3C
62
41
41
81
41
62
3C
ENDCHAR
STARTCHAR 00F3
ENCODING 243
SWIDTH 498 0
DWIDTH 9 0
BBX 8 12 0 0
BITMAP
04
08
10
00
3C
62
41
41
81
41
62
3C
ENDCHAR
STARTCHAR 00F4
ENCODING 244
SWIDTH 498 0
DWIDTH 9 0
BBX 8 11 0 0
BITMAP
18
26
00
3C
62
41
41
81
41
62
3C
ENDCHAR
STARTCHAR 00F5
ENCODING 245
SWIDTH 498 0
DWIDTH 9 0
BBX 8 12 0 0
BITMAP
12
3E
00
00
3C
62
41
41
81
41
62
3C
ENDCHAR
STARTCHAR 00F6
ENCODING 246
SWIDTH 498 0
DWIDTH 9 0
BBX 8 11 0 0
BITMAP
20
26
00
3C
62
41
41
81
41
62
3C
ENDCHAR
STARTCHAR 00F7
ENCODING 247
SWIDTH 498 0
DWIDTH 9 0
BBX 7 6 1 2
BITMAP
10
00
00
FE
00
10
ENDCHAR
STARTCHAR 00F8
ENCODING 248
SWIDTH 498 0
DWIDTH 9 0
BBX 8 8 0 0
BITMAP
3D
62
45
49
91
61
62
BC
ENDCHAR
STARTCHAR 00F9
ENCODING 249
SWIDTH 498 0
DWIDTH 9 0
BBX 7 12 1 0
BITMAP
20
18
00
00
82
82
82
82
82
84
C4
78
ENDCHAR
STARTCHAR 00FA
ENCODING 250
SWIDTH 498 0
DWIDTH 9 0
BBX 7 12 1 0
BITMAP
18
30
00
00
82
82
82
82
82
84
C4
78
ENDCHAR
STARTCHAR 00FB
ENCODING 251
SWIDTH 498 0
DWIDTH 9 0
BBX 7 11 1 1
BITMAP
38
4C
00
82
82
82
82
82
84
C4
78
ENDCHAR
STARTCHAR 00FC
ENCODING 252
SWIDTH 498 0
DWIDTH 9 0
BBX 7 11 1 0
BITMAP
40
4C
00
82
82
82
82
82
84
C4
78
ENDCHAR
STARTCHAR 00FD
ENCODING 253
SWIDTH 443 0
DWIDTH 8 0
BBX 7 16 0 -4
BITMAP
08
10
00
00
82
42
42
24
24
28
18
10
10
10
20
20
ENDCHAR
STARTCHAR 00FE
ENCODING 254
SWIDTH 498 0
DWIDTH 9 0
BBX 8 17 1 -4
BITMAP
80
80
80
80
80
BC
C2
82
81
81
82
C2
BC
80
80
80
80
ENDCHAR
STARTCHAR 00FF
ENCODING 255
SWIDTH 443 0
DWIDTH 8 0
BBX 7 15 0 -4
BITMAP
24
64
00
82
42
42
24
24
28
18
10
10
10
20
20
ENDCHAR
STARTCHAR 0100
ENCODING 256
SWIDTH 553 0
DWIDTH 10 0
BBX 10 14 0 0
BITMAP
1F00
0000
0C00
0C00
0A00
1200
1200
1100
2100
2100
3F80
4080
4080
C040
ENDCHAR
STARTCHAR 0101
ENCODING 257
SWIDTH 553 0
DWIDTH 10 0
BBX 8 11 0 0
BITMAP
3E
00
00
3D
63
41
41
81
41
63
3D
ENDCHAR
STARTCHAR 0102
ENCODING 258
SWIDTH 553 0
DWIDTH 10 0
BBX 10 15 0 0
BITMAP
1200
0E00
0000
0C00
0C00
0A00
1200
1200
1100
2100
2100
3F80
4080
4080
C040
ENDCHAR
STARTCHAR 0103
ENCODING 259
SWIDTH 553 0
DWIDTH 10 0
BBX 8 12 0 0
BITMAP
22
1C
00
00
3D
63
41
41
81
41
63
3D
ENDCHAR
STARTCHAR 0104
ENCODING 260
SWIDTH 553 0
DWIDTH 10 0
BBX 11 16 0 -4
BITMAP
0C00
0C00
0A00
1200
1200
1100
2100
2100
3F80
4080
4080
C040
0080
0100
0100
00E0
ENDCHAR
STARTCHAR 0105
ENCODING 261
SWIDTH 553 0
DWIDTH 10 0
BBX 9 12 0 -4
BITMAP
3D00
6300
4100
4100
8100
4100
6300
3D00
0200
0200
0200
0380
ENDCHAR
STARTCHAR 0106
ENCODING 262
SWIDTH 609 0
DWIDTH 11 0
BBX 9 15 1 0
BITMAP
0200
0600
0000
1F00
2080
4000
8000
8000
8000
8000
8000
8000
4000
2080
1F00
ENDCHAR
STARTCHAR 0107
ENCODING 263
SWIDTH 387 0
DWIDTH 7 0
BBX 5 12 1 0
BITMAP
08
10
20
00
78
C0
80
80
80
80
C0
78
ENDCHAR
STARTCHAR 0108
ENCODING 264
SWIDTH 609 0
DWIDTH 11 0
BBX 9 15 1 0
BITMAP
0400
1B00
0000
1F00
2080
4000
8000
8000
8000
8000
8000
8000
4000
2080
1F00
ENDCHAR
STARTCHAR 0109
ENCODING 265
SWIDTH 387 0
DWIDTH 7 0
BBX 5 11 1 0
BITMAP
70
D8
00
78
C0
80
80
80
80
C0
78
ENDCHAR
STARTCHAR 010A
ENCODING 266
SWIDTH 609 0
DWIDTH 11 0
BBX 9 15 1 0
BITMAP
0400
0400
0000
1F00
2080
4000
8000
8000
8000
8000
8000
8000
4000
2080
1F00
ENDCHAR
STARTCHAR 010B
ENCODING 267
SWIDTH 387 0
DWIDTH 7 0
BBX 5 11 1 0
BITMAP
30
00
00
78
C0
80
80
80
80
C0
78
ENDCHAR
STARTCHAR 010C
ENCODING 268
SWIDTH 609 0
DWIDTH 11 0
BBX 9 14 1 1
BITMAP
0A00
0400
1F00
2080
4000
8000
8000
8000
8000
8000
8000
4000
2080
1F00
ENDCHAR
STARTCHAR 010D
ENCODING 269
SWIDTH 387 0
DWIDTH 7 0
BBX 5 11 1 1
BITMAP
78
20
00
78
C0
80
80
80
80
C0
78
ENDCHAR
STARTCHAR 010E
ENCODING 270
SWIDTH 553 0
DWIDTH 10 0
BBX 8 15 1 0
BITMAP
04
38
00
F8
84
82
81
81
81
81
81
81
82
86
F8
ENDCHAR
STARTCHAR 010F
ENCODING 271
SWIDTH 553 0
DWIDTH 10 0
BBX 10 13 1 0
BITMAP
0240
0240
0200
0200
0200
3A00
C600
8200
8200
8200
8200
C600
7A00
ENDCHAR
STARTCHAR 0110
ENCODING 272
SWIDTH 553 0
DWIDTH 10 0
BBX 9 12 0 0
BITMAP
7C00
4200
4100
4180
4080
4080
F880
4080
4080
4100
4300
7C00
ENDCHAR
STARTCHAR 0111
ENCODING 273
SWIDTH 498 0
DWIDTH 9 0
BBX 8 13 1 0
BITMAP
02
02
0F
02
02
3A
C6
82
82
82
82
C6
7A
ENDCHAR
STARTCHAR 0112
ENCODING 274
SWIDTH 498 0
DWIDTH 9 0
BBX 7 14 1 0
BITMAP
7C
00
FE
80
80
80
80
FE
80
80
80
80
80
FE
ENDCHAR
STARTCHAR 0113
ENCODING 275
SWIDTH 498 0
DWIDTH 9 0
BBX 8 11 0 0
BITMAP
3E
00
00
3C
42
42
FF
40
40
42
3C
ENDCHAR
STARTCHAR 0114
ENCODING 276
SWIDTH 498 0
DWIDTH 9 0
BBX 7 15 1 0
BITMAP
44
38
00
FE
80
80
80
80
FE
80
80
80
80
80
FE
ENDCHAR
STARTCHAR 0115
ENCODING 277
SWIDTH 443 0
DWIDTH 8 0
BBX 8 11 0 0
BITMAP
24
1C
00
3C
42
42
FF
40
40
42
3C
ENDCHAR
STARTCHAR 0116
ENCODING 278
SWIDTH 498 0
DWIDTH 9 0
BBX 7 15 1 0
BITMAP
10
10
00
FE
80
80
80
80
FE
80
80
80
80
80
FE
ENDCHAR
STARTCHAR 0117
ENCODING 279
SWIDTH 498 0
DWIDTH 9 0
BBX 8 11 0 0
BITMAP
18
00
00
3C
42
42
FF
40
40
42
3C
ENDCHAR
STARTCHAR 0118
ENCODING 280
SWIDTH 498 0
DWIDTH 9 0
BBX 7 16 1 -4
BITMAP
FE
80
80
80
80
FE
80
80
80
80
80
FE
08
10
10
0C
ENDCHAR
STARTCHAR 0119
ENCODING 281
SWIDTH 498 0
DWIDTH 9 0
BBX 8 12 0 -4
BITMAP
3C
42
42
FF
40
40
42
3C
08
10
10
0E
ENDCHAR
STARTCHAR 011A
ENCODING 282
SWIDTH 498 0
DWIDTH 9 0
BBX 7 14 1 1
BITMAP
38
00
FE
80
80
80
80
FE
80
80
80
80
80
FE
ENDCHAR
STARTCHAR 011B
ENCODING 283
SWIDTH 498 0
DWIDTH 9 0
BBX 8 11 0 1
BITMAP
3C
08
00
3C
42
42
FF
40
40
42
3C
ENDCHAR
STARTCHAR 011C
ENCODING 284
SWIDTH 720 0
DWIDTH 13 0
BBX 12 15 0 0
BITMAP
0600
0D00
0000
0F80
30C0
2020
4000
4000
8000
83F0
4010
4010
6020
3040
0F80
ENDCHAR
STARTCHAR 011D
ENCODING 285
SWIDTH 498 0
DWIDTH 9 0
BBX 8 15 0 -4
BITMAP
0C
32
00
3D
63
41
41
81
41
63
3D
01
01
42
3C
ENDCHAR
STARTCHAR 011E
ENCODING 286
SWIDTH 720 0
DWIDTH 13 0
BBX 12 15 0 0
BITMAP
0900
0700
0000
0F80
30C0
2020
4000
4000
8000
83F0
4010
4010
6020
3040
0F80
ENDCHAR
STARTCHAR 011F
ENCODING 287
SWIDTH 553 0
DWIDTH 10 0
BBX 8 16 0 -4
BITMAP
22
1C
00
00
3D
63
41
41
81
41
63
3D
01
01
42
3C
ENDCHAR
STARTCHAR 0120
ENCODING 288
SWIDTH 720 0
DWIDTH 13 0
BBX 12 15 0 0
BITMAP
0200
0200
0000
0F80
30C0
2020
4000
4000
8000
83F0
4010
4010
6020
3040
0F80
ENDCHAR
STARTCHAR 0121
ENCODING 289
SWIDTH 553 0
DWIDTH 10 0
BBX 8 15 0 -4
BITMAP
08
08
00
3D
63
41
41
81
41
63
3D
01
01
42
3C
ENDCHAR
STARTCHAR 0122
ENCODING 290
SWIDTH 720 0
DWIDTH 13 0
BBX 12 16 0 -4
BITMAP
0F80
30C0
2020
4000
4000
8000
83F0
4010
4010
6020
3040
0F80
0000
0200
0200
0200
ENDCHAR
STARTCHAR 0123
ENCODING 291
SWIDTH 498 0
DWIDTH 9 0
BBX 8 15 0 -3
BITMAP
18
08
00
3D
63
41
41
81
41
63
3D
01
01
42
3C
ENDCHAR
STARTCHAR 0124
ENCODING 292
SWIDTH 609 0
DWIDTH 11 0
BBX 9 15 1 0
BITMAP
1800
2600
0000
8080
8080
8080
8080
8080
FF80
8080
8080
8080
8080
8080
8080
ENDCHAR
STARTCHAR 0125
ENCODING 293
SWIDTH 498 0
DWIDTH 9 0
BBX 7 17 1 0
BITMAP
30
68
00
00
80
80
80
80
80
B8
C4
82
82
82
82
82
82
ENDCHAR
STARTCHAR 0126
ENCODING 294
SWIDTH 609 0
DWIDTH 11 0
BBX 9 12 1 0
BITMAP
8080
8080
FF80
8080
8080
FF80
8080
8080
8080
8080
8080
8080
ENDCHAR
STARTCHAR 0127
ENCODING 295
SWIDTH 498 0
DWIDTH 9 0
BBX 8 13 0 0
BITMAP
40
40
F0
40
40
5C
62
41
41
41
41
41
41
ENDCHAR
STARTCHAR 0128
ENCODING 296
SWIDTH 221 0
DWIDTH 4 0
BBX 6 15 -1 0
BITMAP
44
F8
00
20
20
20
20
20
20
20
20
20
20
20
20
ENDCHAR
STARTCHAR 0129
ENCODING 297
SWIDTH 166 0
DWIDTH 3 0
BBX 5 12 -1 0
BITMAP
48
B8
00
00
20
20
20
20
20
20
20
20
ENDCHAR
STARTCHAR 012A
ENCODING 298
SWIDTH 221 0
DWIDTH 4 0
BBX 5 14 -1 0
BITMAP
F8
00
20
20
20
20
20
20
20
20
20
20
20
20
ENDCHAR
STARTCHAR 012B
ENCODING 299
SWIDTH 166 0
DWIDTH 3 0
BBX 5 11 -1 0
BITMAP
F8
00
00
20
20
20
20
20
20
20
20
ENDCHAR
STARTCHAR 012C
ENCODING 300
SWIDTH 221 0
DWIDTH 4 0
BBX 4 15 0 0
BITMAP
90
E0
00
40
40
40
40
40
40
40
40
40
40
40
40
ENDCHAR
STARTCHAR 012D
ENCODING 301
SWIDTH 166 0
DWIDTH 3 0
BBX 5 11 -1 0
BITMAP
88
70
00
20
20
20
20
20
20
20
20
ENDCHAR
STARTCHAR 012E
ENCODING 302
SWIDTH 221 0
DWIDTH 4 0
BBX 3 16 0 -4
BITMAP
40
40
40
40
40
40
40
40
40
40
40
40
40
80
80
E0
ENDCHAR
STARTCHAR 012F
ENCODING 303
SWIDTH 221 0
DWIDTH 4 0
BBX 3 16 0 -4
BITMAP
60
40
00
00
40
40
40
40
40
40
40
40
40
80
80
E0
ENDCHAR
STARTCHAR 0130
ENCODING 304
SWIDTH 221 0
DWIDTH 4 0
BBX 1 15 1 0
BITMAP
80
80
00
80
80
80
80
80
80
80
80
80
80
80
80
ENDCHAR
STARTCHAR 0131
ENCODING 305
SWIDTH 166 0
DWIDTH 3 0
BBX 1 8 1 0
BITMAP
80
80
80
80
80
80
80
80
ENDCHAR
STARTCHAR 0134
ENCODING 308
SWIDTH 387 0
DWIDTH 7 0
BBX 8 15 0 0
BITMAP
0C
13
00
04
04
04
04
04
04
04
04
04
04
88
70
ENDCHAR
STARTCHAR 0135
ENCODING 309
SWIDTH 221 0
DWIDTH 4 0
BBX 5 15 -1 -3
BITMAP
30
48
00
30
30
30
30
30
30
30
30
30
30
20
E0
ENDCHAR
STARTCHAR 0136
ENCODING 310
SWIDTH 498 0
DWIDTH 9 0
BBX 7 16 1 -4
BITMAP
84
84
88
90
A0
E0
E0
A0
90
88
84
82
00
10
10
10
ENDCHAR
STARTCHAR 0137
ENCODING 311
SWIDTH 387 0
DWIDTH 7 0
BBX 5 17 1 -4
BITMAP
80
80
80
80
80
88
90
A0
C0
C0
A0
90
88
00
20
20
20
ENDCHAR
STARTCHAR 0138
ENCODING 312
SWIDTH 387 0
DWIDTH 7 0
BBX 5 8 1 0
BITMAP
88
90
A0
C0
E0
B0
98
88
ENDCHAR
STARTCHAR 0139
ENCODING 313
SWIDTH 443 0
DWIDTH 8 0
BBX 6 15 1 0
BITMAP
18
30
00
80
80
80
80
80
80
80
80
80
80
80
FC
ENDCHAR
STARTCHAR 013A
ENCODING 314
SWIDTH 221 0
DWIDTH 4 0
BBX 3 17 1 0
BITMAP
60
C0
00
00
80
80
80
80
80
80
80
80
80
80
80
80
80
ENDCHAR
STARTCHAR 013B
ENCODING 315
SWIDTH 443 0
DWIDTH 8 0
BBX 6 16 1 -4
BITMAP
80
80
80
80
80
80
80
80
80
80
80
FC
00
30
30
20
ENDCHAR
STARTCHAR 013C
ENCODING 316
SWIDTH 221 0
DWIDTH 4 0
BBX 2 17 1 -4
BITMAP
80
80
80
80
80
80
80
80
80
80
80
80
80
00
C0
C0
80
ENDCHAR
STARTCHAR 013D
ENCODING 317
SWIDTH 443 0
DWIDTH 8 0
BBX 7 12 1 0
BITMAP
82
82
80
80
80
80
80
80
80
80
80
FC
ENDCHAR
STARTCHAR 013E
ENCODING 318
SWIDTH 221 0
DWIDTH 4 0
BBX 5 13 1 0
BITMAP
80
98
88
80
80
80
80
80
80
80
80
80
80
ENDCHAR
STARTCHAR 013F
ENCODING 319
SWIDTH 443 0
DWIDTH 8 0
BBX 6 12 1 0
BITMAP
80
80
80
80
80
98
98
80
80
80
80
FC
ENDCHAR
STARTCHAR 0140
ENCODING 320
SWIDTH 276 0
DWIDTH 5 0
BBX 4 13 1 0
BITMAP
80
80
80
80
80
B0
B0
80
80
80
80
80
80
ENDCHAR
STARTCHAR 0141
ENCODING 321
SWIDTH 498 0
DWIDTH 9 0
BBX 8 12 0 0
BITMAP
20
20
20
30
30
60
A0
20
20
20
20
3F
ENDCHAR
STARTCHAR 0142
ENCODING 322
SWIDTH 221 0
DWIDTH 4 0
BBX 2 13 1 0
BITMAP
80
80
80
80
80
C0
C0
80
80
80
80
80
80
ENDCHAR
STARTCHAR 0143
ENCODING 323
SWIDTH 664 0
DWIDTH 12 0
BBX 9 15 1 0
BITMAP
0200
0C00
0000
C080
C080
A080
9080
9080
8880
8C80
8480
8280
8280
8180
8080
ENDCHAR
STARTCHAR 0144
ENCODING 324
SWIDTH 498 0
DWIDTH 9 0
BBX 7 12 1 0
BITMAP
04
18
00
00
B8
C4
82
82
82
82
82
82
ENDCHAR
STARTCHAR 0145
ENCODING 325
SWIDTH 664 0
DWIDTH 12 0
BBX 9 16 1 -4
BITMAP
C080
C080
A080
9080
9080
8880
8C80
8480
8280
8280
8180
8080
0000
0C00
0C00
0800
ENDCHAR
STARTCHAR 0146
ENCODING 326
SWIDTH 498 0
DWIDTH 9 0
BBX 7 12 1 -4
BITMAP
B8
C4
82
82
82
82
82
82
00
30
10
10
ENDCHAR
STARTCHAR 0147
ENCODING 327
SWIDTH 664 0
DWIDTH 12 0
BBX 9 15 1 0
BITMAP
1200
0C00
0000
C080
C080
A080
9080
9080
8880
8C80
8480
8280
8280
8180
8080
ENDCHAR
STARTCHAR 0148
ENCODING 328
SWIDTH 498 0
DWIDTH 9 0
BBX 7 12 1 0
BITMAP
40
68
10
00
B8
C4
82
82
82
82
82
82
ENDCHAR
STARTCHAR 014A
ENCODING 330
SWIDTH 664 0
DWIDTH 12 0
BBX 9 16 1 -4
BITMAP
C080
C080
A080
9080
9080
8880
8C80
8480
8280
8280
8180
8080
0080
0080
0080
0300
ENDCHAR
STARTCHAR 014B
ENCODING 331
SWIDTH 498 0
DWIDTH 9 0
BBX 7 12 1 -4
BITMAP
B8
C4
82
82
82
82
82
82
02
02
04
1C
ENDCHAR
STARTCHAR 014C
ENCODING 332
SWIDTH 720 0
DWIDTH 13 0
BBX 12 15 0 0
BITMAP
0F80
0000
0000
0F80
30C0
6020
4030
4010
8010
8010
4010
4030
6020
3040
0F80
ENDCHAR
STARTCHAR 014D
ENCODING 333
SWIDTH 498 0
DWIDTH 9 0
BBX 8 11 0 0
BITMAP
3E
00
00
3C
62
41
41
81
41
62
3C
ENDCHAR
STARTCHAR 014E
ENCODING 334
SWIDTH 720 0
DWIDTH 13 0
BBX 12 15 0 0
BITMAP
0900
0700
0000
0F80
30C0
6020
4030
4010
8010
8010
4010
4030
6020
3040
0F80
ENDCHAR
STARTCHAR 014F
ENCODING 335
SWIDTH 498 0
DWIDTH 9 0
BBX 8 11 0 0
BITMAP
26
1C
00
3C
62
41
41
81
41
62
3C
ENDCHAR
STARTCHAR 0150
ENCODING 336
SWIDTH 720 0
DWIDTH 13 0
BBX 12 16 0 0
BITMAP
0480
0900
0000
0000
0F80
30C0
6020
4030
4010
8010
8010
4010
4030
6020
3040
0F80
ENDCHAR
STARTCHAR 0151
ENCODING 337
SWIDTH 498 0
DWIDTH 9 0
BBX 8 12 0 0
BITMAP
12
32
04
00
3C
62
41
41
81
41
62
3C
ENDCHAR
STARTCHAR 0152
ENCODING 338
SWIDTH 775 0
DWIDTH 14 0
BBX 12 12 1 0
BITMAP
1FF0
6200
C200
8200
8200
83F0
8200
8200
8200
4200
6200
1FF0
ENDCHAR
STARTCHAR 0153
ENCODING 339
SWIDTH 830 0
DWIDTH 15 0
BBX 14 8 0 0
BITMAP
3C78
6284
4104
81FC
4100
4100
6284
3C78
ENDCHAR
STARTCHAR 0154
ENCODING 340
SWIDTH 553 0
DWIDTH 10 0
BBX 7 15 1 0
BITMAP
0C
10
00
FC
82
82
82
82
86
FC
88
84
84
82
82
ENDCHAR
STARTCHAR 0155
ENCODING 341
SWIDTH 332 0
DWIDTH 6 0
BBX 5 12 1 0
BITMAP
10
20
40
00
B8
C0
80
80
80
80
80
80
ENDCHAR
STARTCHAR 0156
ENCODING 342
SWIDTH 553 0
DWIDTH 10 0
BBX 7 16 1 -4
BITMAP
FC
82
82
82
82
86
FC
88
84
84
82
82
00
10
10
10
ENDCHAR
STARTCHAR 0157
ENCODING 343
SWIDTH 332 0
DWIDTH 6 0
BBX 5 12 1 -4
BITMAP
B8
C0
80
80
80
80
80
80
00
60
20
40
ENDCHAR
STARTCHAR 0158
ENCODING 344
SWIDTH 553 0
DWIDTH 10 0
BBX 7 14 1 1
BITMAP
38
00
FC
82
82
82
82
86
FC
88
84
84
82
82
ENDCHAR
STARTCHAR 0159
ENCODING 345
SWIDTH 332 0
DWIDTH 6 0
BBX 5 11 1 1
BITMAP
F0
60
00
B8
C0
80
80
80
80
80
80
ENDCHAR
STARTCHAR 015A
ENCODING 346
SWIDTH 498 0
DWIDTH 9 0
BBX 7 15 1 0
BITMAP
08
18
00
7C
C0
80
80
40
30
0C
02
02
02
86
7C
ENDCHAR
STARTCHAR 015B
ENCODING 347
SWIDTH 387 0
DWIDTH 7 0
BBX 5 12 1 0
BITMAP
10
20
40
00
70
80
80
60
18
08
08
F0
ENDCHAR
STARTCHAR 015C
ENCODING 348
SWIDTH 498 0
DWIDTH 9 0
BBX 7 15 1 0
BITMAP
10
6C
00
7C
C0
80
80
40
30
0C
02
02
02
86
7C
ENDCHAR
STARTCHAR 015D
ENCODING 349
SWIDTH 387 0
DWIDTH 7 0
BBX 5 11 1 0
BITMAP
60
98
00
70
80
80
60
18
08
08
F0
ENDCHAR
STARTCHAR 015E
ENCODING 350
SWIDTH 498 0
DWIDTH 9 0
BBX 7 16 1 -4
BITMAP
7C
C0
80
80
40
30
0C
02
02
02
86
7C
20
38
08
38
ENDCHAR
STARTCHAR 015F
ENCODING 351
SWIDTH 387 0
DWIDTH 7 0
BBX 5 12 1 -4
BITMAP
70
80
80
60
18
08
08
F0
40
30
10
70
ENDCHAR
STARTCHAR 0160
ENCODING 352
SWIDTH 498 0
DWIDTH 9 0
BBX 7 14 1 1
BITMAP
28
10
7C
C0
80
80
40
30
0C
02
02
02
86
7C
ENDCHAR
STARTCHAR 0161
ENCODING 353
SWIDTH 387 0
DWIDTH 7 0
BBX 5 12 1 0
BITMAP
80
D0
20
00
70
80
80
60
18
08
08
F0
ENDCHAR
STARTCHAR 0162
ENCODING 354
SWIDTH 498 0
DWIDTH 9 0
BBX 8 16 0 -4
BITMAP
FF
08
08
08
08
08
08
08
08
08
08
08
10
1C
04
3C
ENDCHAR
STARTCHAR 0163
ENCODING 355
SWIDTH 332 0
DWIDTH 6 0
BBX 6 15 0 -4
BITMAP
20
20
20
F8
20
20
20
20
20
20
38
10
18
04
38
ENDCHAR
STARTCHAR 0164
ENCODING 356
SWIDTH 498 0
DWIDTH 9 0
BBX 8 15 0 0
BITMAP
20
1C
00
FF
08
08
08
08
08
08
08
08
08
08
08
ENDCHAR
STARTCHAR 0165
ENCODING 357
SWIDTH 332 0
DWIDTH 6 0
BBX 7 12 0 0
BITMAP
02
22
20
20
F8
20
20
20
20
20
20
38
ENDCHAR
STARTCHAR 0166
ENCODING 358
SWIDTH 498 0
DWIDTH 9 0
BBX 8 12 0 0
BITMAP
FF
08
08
08
08
FF
08
08
08
08
08
08
ENDCHAR
STARTCHAR 0167
ENCODING 359
SWIDTH 332 0
DWIDTH 6 0
BBX 5 11 0 0
BITMAP
20
20
20
F8
20
20
F8
20
20
20
38
ENDCHAR
STARTCHAR 0168
ENCODING 360
SWIDTH 609 0
DWIDTH 11 0
BBX 9 15 1 0
BITMAP
1200
3E00
0000
8080
8080
8080
8080
8080
8080
8080
8080
8080
C100
4300
3E00
ENDCHAR
STARTCHAR 0169
ENCODING 361
SWIDTH 498 0
DWIDTH 9 0
BBX 7 12 1 0
BITMAP
24
5C
00
00
82
82
82
82
82
84
C4
78
ENDCHAR
STARTCHAR 016A
ENCODING 362
SWIDTH 609 0
DWIDTH 11 0
BBX 9 14 1 0
BITMAP
3E00
0000
8080
8080
8080
8080
8080
8080
8080
8080
8080
C100
4300
3E00
ENDCHAR
STARTCHAR 016B
ENCODING 363
SWIDTH 498 0
DWIDTH 9 0
BBX 7 11 1 0
BITMAP
7C
00
00
82
82
82
82
82
84
C4
78
ENDCHAR
STARTCHAR 016C
ENCODING 364
SWIDTH 609 0
DWIDTH 11 0
BBX 9 15 1 0
BITMAP
2200
1C00
0000
8080
8080
8080
8080
8080
8080
8080
8080
8080
C100
4300
3E00
ENDCHAR
STARTCHAR 016D
ENCODING 365
SWIDTH 498 0
DWIDTH 9 0
BBX 7 11 1 0
BITMAP
4C
38
00
82
82
82
82
82
84
C4
78
ENDCHAR
STARTCHAR 016E
ENCODING 366
SWIDTH 609 0
DWIDTH 11 0
BBX 9 16 1 0
BITMAP
0800
1400
1C00
0000
8080
8080
8080
8080
8080
8080
8080
8080
8080
C100
4300
3E00
ENDCHAR
STARTCHAR 016F
ENCODING 367
SWIDTH 498 0
DWIDTH 9 0
BBX 7 12 1 0
BITMAP
38
48
38
00
82
82
82
82
82
84
C4
78
ENDCHAR
STARTCHAR 0170
ENCODING 368
SWIDTH 609 0
DWIDTH 11 0
BBX 9 15 1 0
BITMAP
1200
2400
0000
8080
8080
8080
8080
8080
8080
8080
8080
8080
C100
4300
3E00
ENDCHAR
STARTCHAR 0171
ENCODING 369
SWIDTH 498 0
DWIDTH 9 0
BBX 7 12 1 0
BITMAP
22
6C
00
00
82
82
82
82
82
84
C4
78
ENDCHAR
STARTCHAR 0172
ENCODING 370
SWIDTH 609 0
DWIDTH 11 0
BBX 9 16 1 -4
BITMAP
8080
8080
8080
8080
8080
8080
8080
8080
8080
C100
4300
3E00
0800
1000
1000
1C00
ENDCHAR
STARTCHAR 0173
ENCODING 371
SWIDTH 498 0
DWIDTH 9 0
BBX 7 12 1 -4
BITMAP
82
82
82
82
82
84
C4
78
20
20
20
38
ENDCHAR
STARTCHAR 0174
ENCODING 372
SWIDTH 775 0
DWIDTH 14 0
BBX 13 15 0 0
BITMAP
0300
0C80
0000
C208
4308
4508
4510
4510
4490
2890
2890
28A0
2860
3060
1060
ENDCHAR
STARTCHAR 0175
ENCODING 373
SWIDTH 609 0
DWIDTH 11 0
BBX 9 11 1 1
BITMAP
1C00
2200
0000
8880
9880
9480
9480
5500
6300
6300
6300
ENDCHAR
STARTCHAR 0176
ENCODING 374
SWIDTH 553 0
DWIDTH 10 0
BBX 9 15 0 0
BITMAP
1C00
3600
0000
C080
4100
6100
2200
3200
1400
1C00
0800
0800
0800
0800
0800
ENDCHAR
STARTCHAR 0177
ENCODING 375
SWIDTH 443 0
DWIDTH 8 0
BBX 7 15 0 -3
BITMAP
38
64
00
82
42
42
24
24
28
18
10
10
10
20
20
ENDCHAR
STARTCHAR 0178
ENCODING 376
SWIDTH 553 0
DWIDTH 10 0
BBX 9 15 0 0
BITMAP
0200
3200
0000
C080
4100
6100
2200
3200
1400
1C00
0800
0800
0800
0800
0800
ENDCHAR
STARTCHAR 0179
ENCODING 377
SWIDTH 553 0
DWIDTH 10 0
BBX 8 15 1 0
BITMAP
04
18
00
FF
02
02
04
08
08
10
30
20
40
C0
FF
ENDCHAR
STARTCHAR 017A
ENCODING 378
SWIDTH 387 0
DWIDTH 7 0
BBX 6 12 1 0
BITMAP
18
30
00
00
F8
08
10
20
20
40
80
FC
ENDCHAR
STARTCHAR 017B
ENCODING 379
SWIDTH 553 0
DWIDTH 10 0
BBX 8 14 1 1
BITMAP
18
00
FF
02
02
04
08
08
10
30
20
40
C0
FF
ENDCHAR
STARTCHAR 017C
ENCODING 380
SWIDTH 387 0
DWIDTH 7 0
BBX 6 12 1 0
BITMAP
20
20
00
00
F8
08
10
20
20
40
80
FC
ENDCHAR
STARTCHAR 017D
ENCODING 381
SWIDTH 553 0
DWIDTH 10 0
BBX 8 15 1 0
BITMAP
24
18
00
FF
02
02
04
08
08
10
30
20
40
C0
FF
ENDCHAR
STARTCHAR 017E
ENCODING 382
SWIDTH 387 0
DWIDTH 7 0
BBX 6 12 1 0
BITMAP
88
70
20
00
F8
08
10
20
20
40
80
FC
ENDCHAR
STARTCHAR 018F
ENCODING 399
SWIDTH 664 0
DWIDTH 12 0
BBX 11 12 0 0
BITMAP
1F00
20C0
4040
0020
0020
0020
FFE0
4020
4020
4040
20C0
1F00
ENDCHAR
STARTCHAR 0192
ENCODING 402
SWIDTH 332 0
DWIDTH 6 0
BBX 9 17 -2 -4
BITMAP
0380
0400
0800
0800
0800
3E00
0800
0800
0800
1000
1000
1000
1000
1000
1000
2000
E000
ENDCHAR
STARTCHAR 01A0
ENCODING 416
SWIDTH 720 0
DWIDTH 13 0
BBX 13 12 0 1
BITMAP
0F08
10D0
2020
4020
4010
8010
8010
4010
4010
6020
3040
0F80
ENDCHAR
STARTCHAR 01A1
ENCODING 417
SWIDTH 498 0
DWIDTH 9 0
BBX 9 9 0 0
BITMAP
0080
3C80
6300
4100
4100
8100
4100
6200
3C00
ENDCHAR
STARTCHAR 01AF
ENCODING 431
SWIDTH 720 0
DWIDTH 13 0
BBX 12 14 1 0
BITMAP
0010
0010
80E0
8080
8080
8080
8080
8080
8080
8080
8080
C100
4300
3E00
ENDCHAR
STARTCHAR 01B0
ENCODING 432
SWIDTH 553 0
DWIDTH 10 0
BBX 9 9 1 1
BITMAP
0080
8380
8200
8200
8200
8200
8400
C400
7800
ENDCHAR
STARTCHAR 01C4
ENCODING 452
SWIDTH 1107 0
DWIDTH 20 0
BBX 18 16 1 0
BITMAP
000900
000700
000000
000000
F83FC0
840080
820080
810100
810300
810200
810400
810C00
810800
821000
863000
F83FC0
ENDCHAR
STARTCHAR 01C5
ENCODING 453
SWIDTH 941 0
DWIDTH 17 0
BBX 16 12 1 0
BITMAP
F800
8616
8208
8100
813E
8102
8104
8108
8308
8210
8420
F83F
ENDCHAR
STARTCHAR 01C6
ENCODING 454
SWIDTH 941 0
DWIDTH 17 0
BBX 15 13 1 0
BITMAP
0200
0204
0238
0200
0200
7A7E
C604
8208
8218
8210
8220
C660
7A7E
ENDCHAR
STARTCHAR 01C7
ENCODING 455
SWIDTH 830 0
DWIDTH 15 0
BBX 13 12 1 0
BITMAP
8008
8008
8008
8008
8008
8008
8008
8008
8008
8008
8110
FCE0
ENDCHAR
STARTCHAR 01C8
ENCODING 456
SWIDTH 664 0
DWIDTH 12 0
BBX 10 16 1 -4
BITMAP
80C0
8000
8000
8000
8040
8040
8040
8040
8040
8040
8040
FC40
0040
00C0
0080
0380
ENDCHAR
STARTCHAR 01C9
ENCODING 457
SWIDTH 443 0
DWIDTH 8 0
BBX 5 17 1 -4
BITMAP
80
88
88
80
80
88
88
88
88
88
88
88
88
08
08
08
30
ENDCHAR
STARTCHAR 01CA
ENCODING 458
SWIDTH 1052 0
DWIDTH 19 0
BBX 17 12 1 0
BITMAP
C08080
C08080
A08080
908080
908080
888080
8C8080
848080
828080
828100
819100
809E00
ENDCHAR
STARTCHAR 01CB
ENCODING 459
SWIDTH 886 0
DWIDTH 16 0
BBX 14 16 1 -4
BITMAP
C08C
C080
A080
9080
9088
8888
8C88
8488
8288
8288
8188
8088
0008
0008
0008
0038
ENDCHAR
STARTCHAR 01CC
ENCODING 460
SWIDTH 720 0
DWIDTH 13 0
BBX 11 16 1 -4
BITMAP
0060
0000
0000
0000
B840
C440
8240
8240
8240
8240
8240
8240
0040
0040
0040
01C0
ENDCHAR
STARTCHAR 01CE
ENCODING 462
SWIDTH 498 0
DWIDTH 9 0
BBX 8 12 0 0
BITMAP
02
16
08
00
3D
63
41
41
81
41
63
3D
ENDCHAR
STARTCHAR 01D0
ENCODING 464
SWIDTH 166 0
DWIDTH 3 0
BBX 5 12 -1 0
BITMAP
88
70
20
00
20
20
20
20
20
20
20
20
ENDCHAR
STARTCHAR 01D2
ENCODING 466
SWIDTH 498 0
DWIDTH 9 0
BBX 8 12 0 0
BITMAP
20
14
08
00
3C
62
41
41
81
41
62
3C
ENDCHAR
STARTCHAR 01D4
ENCODING 468
SWIDTH 498 0
DWIDTH 9 0
BBX 7 12 1 0
BITMAP
44
38
10
00
82
82
82
82
82
84
C4
78
ENDCHAR
STARTCHAR 01D6
ENCODING 470
SWIDTH 498 0
DWIDTH 9 0
BBX 7 14 1 0
BITMAP
7C
00
00
40
4C
00
82
82
82
82
82
84
C4
78
ENDCHAR
STARTCHAR 01D8
ENCODING 472
SWIDTH 498 0
DWIDTH 9 0
BBX 7 14 1 0
BITMAP
08
30
00
40
4C
00
82
82
82
82
82
84
C4
78
ENDCHAR
STARTCHAR 01DA
ENCODING 474
SWIDTH 498 0
DWIDTH 9 0
BBX 7 14 1 1
BITMAP
6C
10
00
40
4C
00
82
82
82
82
82
84
C4
78
ENDCHAR
STARTCHAR 01DC
ENCODING 476
SWIDTH 498 0
DWIDTH 9 0
BBX 7 14 1 0
BITMAP
20
10
00
40
4C
00
82
82
82
82
82
84
C4
78
ENDCHAR
STARTCHAR 01E6
ENCODING 486
SWIDTH 720 0
DWIDTH 13 0
BBX 12 14 0 1
BITMAP
0500
0200
0F80
30C0
2020
4000
4000
8000
83F0
4010
4010
6020
3040
0F80
ENDCHAR
STARTCHAR 01E7
ENCODING 487
SWIDTH 498 0
DWIDTH 9 0
BBX 8 15 0 -3
BITMAP
1E
08
00
3D
63
41
41
81
41
63
3D
01
01
42
3C
ENDCHAR
STARTCHAR 01EA
ENCODING 490
SWIDTH 720 0
DWIDTH 13 0
BBX 12 16 0 -4
BITMAP
0F80
30C0
6020
4030
4010
8010
8010
4010
4030
6020
3040
0F80
0200
0200
0400
0380
ENDCHAR
STARTCHAR 01EB
ENCODING 491
SWIDTH 498 0
DWIDTH 9 0
BBX 8 12 0 -4
BITMAP
3C
62
41
41
81
41
62
3E
04
08
08
0E
ENDCHAR
STARTCHAR 01FA
ENCODING 506
SWIDTH 553 0
DWIDTH 10 0
BBX 10 19 0 0
BITMAP
0200
0600
0800
0400
1A00
0C00
0000
0C00
0C00
0A00
1200
1200
1100
2100
2100
3F80
4080
4080
C040
ENDCHAR
STARTCHAR 01FB
ENCODING 507
SWIDTH 498 0
DWIDTH 9 0
BBX 8 16 0 0
BITMAP
04
0C
10
00
08
14
1C
00
3D
63
41
41
81
41
63
3D
ENDCHAR
STARTCHAR 01FC
ENCODING 508
SWIDTH 830 0
DWIDTH 15 0
BBX 14 16 0 0
BITMAP
0010
0020
0000
0000
01FC
0300
0500
0500
0900
09FC
1100
1100
3F00
2100
4100
81FC
ENDCHAR
STARTCHAR 01FD
ENCODING 509
SWIDTH 720 0
DWIDTH 13 0
BBX 11 12 1 0
BITMAP
0200
0400
0800
0000
F3C0
8C20
0420
77E0
8C00
8400
8C20
73C0
ENDCHAR
STARTCHAR 01FE
ENCODING 510
SWIDTH 720 0
DWIDTH 13 0
BBX 12 16 0 0
BITMAP
0100
0600
0000
0000
0F90
30E0
6060
40B0
4110
8210
8410
4810
5030
6020
7040
8F80
ENDCHAR
STARTCHAR 01FF
ENCODING 511
SWIDTH 498 0
DWIDTH 9 0
BBX 8 12 0 0
BITMAP
04
08
10
00
3D
62
45
49
91
61
62
BC
ENDCHAR
STARTCHAR 0200
ENCODING 512
SWIDTH 553 0
DWIDTH 10 0
BBX 10 15 0 0
BITMAP
2600
1B00
0000
0C00
0C00
0A00
1200
1200
1100
2100
2100
3F80
4080
4080
C040
ENDCHAR
STARTCHAR 0201
ENCODING 513
SWIDTH 498 0
DWIDTH 9 0
BBX 8 12 0 0
BITMAP
24
12
09
00
3D
63
41
41
81
41
63
3D
ENDCHAR
STARTCHAR 0202
ENCODING 514
SWIDTH 553 0
DWIDTH 10 0
BBX 10 15 0 0
BITMAP
0C00
1200
0000
0C00
0C00
0A00
1200
1200
1100
2100
2100
3F80
4080
4080
C040
ENDCHAR
STARTCHAR 0203
ENCODING 515
SWIDTH 498 0
DWIDTH 9 0
BBX 8 11 0 0
BITMAP
1C
22
00
3D
63
41
41
81
41
63
3D
ENDCHAR
STARTCHAR 0204
ENCODING 516
SWIDTH 498 0
DWIDTH 9 0
BBX 7 15 1 0
BITMAP
C8
24
00
FE
80
80
80
80
FE
80
80
80
80
80
FE
ENDCHAR
STARTCHAR 0205
ENCODING 517
SWIDTH 443 0
DWIDTH 8 0
BBX 8 12 0 0
BITMAP
44
36
00
00
3C
42
42
FF
40
40
42
3C
ENDCHAR
STARTCHAR 0206
ENCODING 518
SWIDTH 498 0
DWIDTH 9 0
BBX 7 15 1 0
BITMAP
38
64
00
FE
80
80
80
80
FE
80
80
80
80
80
FE
ENDCHAR
STARTCHAR 0207
ENCODING 519
SWIDTH 443 0
DWIDTH 8 0
BBX 8 11 0 0
BITMAP
1C
24
00
3C
42
42
FF
40
40
42
3C
ENDCHAR
STARTCHAR 0208
ENCODING 520
SWIDTH 221 0
DWIDTH 4 0
BBX 6 15 -1 0
BITMAP
90
48
04
20
20
20
20
20
20
20
20
20
20
20
20
ENDCHAR
STARTCHAR 0209
ENCODING 521
SWIDTH 166 0
DWIDTH 3 0
BBX 5 12 -1 0
BITMAP
90
48
00
00
20
20
20
20
20
20
20
20
ENDCHAR
STARTCHAR 020A
ENCODING 522
SWIDTH 221 0
DWIDTH 4 0
BBX 4 15 0 0
BITMAP
60
90
00
40
40
40
40
40
40
40
40
40
40
40
40
ENDCHAR
STARTCHAR 020B
ENCODING 523
SWIDTH 166 0
DWIDTH 3 0
BBX 5 12 -1 0
BITMAP
70
98
00
00
20
20
20
20
20
20
20
20
ENDCHAR
STARTCHAR 020C
ENCODING 524
SWIDTH 720 0
DWIDTH 13 0
BBX 12 15 0 0
BITMAP
1200
0980
0000
0F80
30C0
6020
4030
4010
8010
8010
4010
4030
6020
3040
0F80
ENDCHAR
STARTCHAR 020D
ENCODING 525
SWIDTH 498 0
DWIDTH 9 0
BBX 8 12 0 0
BITMAP
24
36
00
00
3C
62
41
41
81
41
62
3C
ENDCHAR
STARTCHAR 020E
ENCODING 526
SWIDTH 720 0
DWIDTH 13 0
BBX 12 15 0 0
BITMAP
0700
0980
0000
0F80
30C0
6020
4030
4010
8010
8010
4010
4030
6020
3040
0F80
ENDCHAR
STARTCHAR 020F
ENCODING 527
SWIDTH 498 0
DWIDTH 9 0
BBX 8 11 0 0
BITMAP
1C
26
00
3C
62
41
41
81
41
62
3C
ENDCHAR
STARTCHAR 0210
ENCODING 528
SWIDTH 553 0
DWIDTH 10 0
BBX 7 15 1 0
BITMAP
C8
64
00
FC
82
82
82
82
86
FC
88
84
84
82
82
ENDCHAR
STARTCHAR 0211
ENCODING 529
SWIDTH 332 0
DWIDTH 6 0
BBX 6 12 0 0
BITMAP
90
6C
00
00
5C
60
40
40
40
40
40
40
ENDCHAR
STARTCHAR 0212
ENCODING 530
SWIDTH 553 0
DWIDTH 10 0
BBX 7 15 1 0
BITMAP
38
4C
00
FC
82
82
82
82
86
FC
88
84
84
82
82
ENDCHAR
STARTCHAR 0213
ENCODING 531
SWIDTH 332 0
DWIDTH 6 0
BBX 5 11 1 0
BITMAP
F0
90
00
B8
C0
80
80
80
80
80
80
ENDCHAR
STARTCHAR 0214
ENCODING 532
SWIDTH 609 0
DWIDTH 11 0
BBX 9 15 1 0
BITMAP
6C00
3200
0000
8080
8080
8080
8080
8080
8080
8080
8080
8080
C100
4300
3E00
ENDCHAR
STARTCHAR 0215
ENCODING 533
SWIDTH 498 0
DWIDTH 9 0
BBX 7 12 1 0
BITMAP
C8
24
00
00
82
82
82
82
82
84
C4
78
ENDCHAR
STARTCHAR 0216
ENCODING 534
SWIDTH 609 0
DWIDTH 11 0
BBX 9 15 1 0
BITMAP
1C00
2600
0000
8080
8080
8080
8080
8080
8080
8080
8080
8080
C100
4300
3E00
ENDCHAR
STARTCHAR 0217
ENCODING 535
SWIDTH 498 0
DWIDTH 9 0
BBX 7 12 1 0
BITMAP
38
48
00
00
82
82
82
82
82
84
C4
78
ENDCHAR
STARTCHAR 0218
ENCODING 536
SWIDTH 498 0
DWIDTH 9 0
BBX 7 16 1 -4
BITMAP
7C
C0
80
80
40
30
0C
02
02
02
86
7C
00
10
10
10
ENDCHAR
STARTCHAR 0219
ENCODING 537
SWIDTH 387 0
DWIDTH 7 0
BBX 5 12 1 -4
BITMAP
70
80
80
60
18
08
08
F0
00
20
20
20
ENDCHAR
STARTCHAR 021A
ENCODING 538
SWIDTH 498 0
DWIDTH 9 0
BBX 8 16 0 -4
BITMAP
FF
08
08
08
08
08
08
08
08
08
08
08
00
18
08
10
ENDCHAR
STARTCHAR 021B
ENCODING 539
SWIDTH 332 0
DWIDTH 6 0
BBX 5 15 0 -4
BITMAP
20
20
20
F8
20
20
20
20
20
20
38
00
18
18
10
ENDCHAR
STARTCHAR 022A
ENCODING 554
SWIDTH 720 0
DWIDTH 13 0
BBX 12 16 0 0
BITMAP
0F80
0800
0980
0000
0F80
30C0
6020
4030
4010
8010
8010
4010
4030
6020
3040
0F80
ENDCHAR
STARTCHAR 022B
ENCODING 555
SWIDTH 498 0
DWIDTH 9 0
BBX 8 13 0 0
BITMAP
3E
00
20
26
00
3C
62
41
41
81
41
62
3C
ENDCHAR
STARTCHAR 022C
ENCODING 556
SWIDTH 720 0
DWIDTH 13 0
BBX 12 18 0 0
BITMAP
0F80
0000
0000
0F80
0000
0000
0F80
30C0
6020
4030
4010
8010
8010
4010
4030
6020
3040
0F80
ENDCHAR
STARTCHAR 022D
ENCODING 557
SWIDTH 498 0
DWIDTH 9 0
BBX 8 14 0 0
BITMAP
3E
00
00
3E
00
00
3C
62
41
41
81
41
62
3C
ENDCHAR
STARTCHAR 0230
ENCODING 560
SWIDTH 720 0
DWIDTH 13 0
BBX 12 16 0 0
BITMAP
0F80
0200
0200
0000
0F80
30C0
6020
4030
4010
8010
8010
4010
4030
6020
3040
0F80
ENDCHAR
STARTCHAR 0231
ENCODING 561
SWIDTH 498 0
DWIDTH 9 0
BBX 8 14 0 0
BITMAP
3E
00
00
08
08
00
3C
62
41
41
81
41
62
3C
ENDCHAR
STARTCHAR 0232
ENCODING 562
SWIDTH 553 0
DWIDTH 10 0
BBX 9 14 0 0
BITMAP
3E00
0000
C080
4100
6100
2200
3200
1400
1C00
0800
0800
0800
0800
0800
ENDCHAR
STARTCHAR 0233
ENCODING 563
SWIDTH 443 0
DWIDTH 8 0
BBX 7 15 0 -4
BITMAP
7C
00
00
82
42
42
24
24
28
18
10
10
10
20
20
ENDCHAR
STARTCHAR 0237
ENCODING 567
SWIDTH 221 0
DWIDTH 4 0
BBX 4 12 -1 -4
BITMAP
30
30
30
30
30
30
30
30
30
30
20
E0
ENDCHAR
STARTCHAR 0259
ENCODING 601
SWIDTH 443 0
DWIDTH 8 0
BBX 7 8 1 0
BITMAP
78
84
02
02
FE
82
C4
78
ENDCHAR
STARTCHAR 02BC
ENCODING 700
SWIDTH 276 0
DWIDTH 5 0
BBX 1 4 1 8
BITMAP
80
80
80
80
ENDCHAR
STARTCHAR 02C6
ENCODING 710
SWIDTH 498 0
DWIDTH 9 0
BBX 4 2 2 9
BITMAP
20
D0
ENDCHAR
STARTCHAR 02C7
ENCODING 711
SWIDTH 498 0
DWIDTH 9 0
BBX 4 2 2 10
BITMAP
D0
20
ENDCHAR
STARTCHAR 02C9
ENCODING 713
SWIDTH 498 0
DWIDTH 9 0
BBX 5 1 2 10
BITMAP
F8
ENDCHAR
STARTCHAR 02D8
ENCODING 728
SWIDTH 498 0
DWIDTH 9 0
BBX 5 2 2 9
BITMAP
88
70
ENDCHAR
STARTCHAR 02D9
ENCODING 729
SWIDTH 276 0
DWIDTH 5 0
BBX 1 2 2 9
BITMAP
80
80
ENDCHAR
STARTCHAR 02DA
ENCODING 730
SWIDTH 387 0
DWIDTH 7 0
BBX 3 3 2 9
BITMAP
E0
A0
E0
ENDCHAR
STARTCHAR 02DB
ENCODING 731
SWIDTH 332 0
DWIDTH 6 0
BBX 4 4 1 -4
BITMAP
40
80
80
70
ENDCHAR
STARTCHAR 02DC
ENCODING 732
SWIDTH 498 0
DWIDTH 9 0
BBX 5 2 2 9
BITMAP
C8
B8
ENDCHAR
STARTCHAR 02DD
ENCODING 733
SWIDTH 498 0
DWIDTH 9 0
BBX 6 3 2 9
BITMAP
24
48
90
ENDCHAR
STARTCHAR 0300
ENCODING 768
SWIDTH 0 0
DWIDTH 0 0
BBX 3 2 2 10
BITMAP
C0
20
ENDCHAR
STARTCHAR 0301
ENCODING 769
SWIDTH 0 0
DWIDTH 0 0
BBX 2 2 3 10
BITMAP
40
80
ENDCHAR
STARTCHAR 0302
ENCODING 770
SWIDTH 0 0
DWIDTH 0 0
BBX 5 2 2 9
BITMAP
20
D8
ENDCHAR
STARTCHAR 0303
ENCODING 771
SWIDTH 0 0
DWIDTH 0 0
BBX 5 2 2 9
BITMAP
C8
B8
ENDCHAR
STARTCHAR 0304
ENCODING 772
SWIDTH 0 0
DWIDTH 0 0
BBX 5 1 2 10
BITMAP
F8
ENDCHAR
STARTCHAR 0306
ENCODING 774
SWIDTH 0 0
DWIDTH 0 0
BBX 5 2 2 9
BITMAP
C8
70
ENDCHAR
STARTCHAR 0307
ENCODING 775
SWIDTH 0 0
DWIDTH 0 0
BBX 1 2 2 9
BITMAP
80
80
ENDCHAR
STARTCHAR 0308
ENCODING 776
SWIDTH 0 0
DWIDTH 0 0
BBX 5 2 2 9
BITMAP
98
80
ENDCHAR
STARTCHAR 0309
ENCODING 777
SWIDTH 0 0
DWIDTH 0 0
BBX 4 4 3 8
BITMAP
E0
10
10
60
ENDCHAR
STARTCHAR 030A
ENCODING 778
SWIDTH 0 0
DWIDTH 0 0
BBX 3 3 2 9
BITMAP
E0
A0
E0
ENDCHAR
STARTCHAR 030B
ENCODING 779
SWIDTH 0 0
DWIDTH 0 0
BBX 6 3 2 9
BITMAP
24
48
90
ENDCHAR
STARTCHAR 030C
ENCODING 780
SWIDTH 0 0
DWIDTH 0 0
BBX 5 2 2 10
BITMAP
D8
20
ENDCHAR
STARTCHAR 030F
ENCODING 783
SWIDTH 0 0
DWIDTH 0 0
BBX 6 3 2 9
BITMAP
90
D8
24
ENDCHAR
STARTCHAR 0311
ENCODING 785
SWIDTH 0 0
DWIDTH 0 0
BBX 5 2 2 9
BITMAP
70
98
ENDCHAR
STARTCHAR 0312
ENCODING 786
SWIDTH 0 0
DWIDTH 0 0
BBX 2 2 1 9
BITMAP
80
C0
ENDCHAR
STARTCHAR 031B
ENCODING 795
SWIDTH 0 0
DWIDTH 0 0
BBX 2 3 4 8
BITMAP
40
40
80
ENDCHAR
STARTCHAR 0323
ENCODING 803
SWIDTH 0 0
DWIDTH 0 0
BBX 1 2 2 -3
BITMAP
80
80
ENDCHAR
STARTCHAR 0324
ENCODING 804
SWIDTH 0 0
DWIDTH 0 0
BBX 5 2 2 -2
BITMAP
80
98
ENDCHAR
STARTCHAR 0326
ENCODING 806
SWIDTH 0 0
DWIDTH 0 0
BBX 1 3 2 -4
BITMAP
80
80
80
ENDCHAR
STARTCHAR 0327
ENCODING 807
SWIDTH 0 0
DWIDTH 0 0
BBX 3 4 2 -3
BITMAP
40
60
20
E0
ENDCHAR
STARTCHAR 0328
ENCODING 808
SWIDTH 0 0
DWIDTH 0 0
BBX 4 4 1 -4
BITMAP
40
80
80
70
ENDCHAR
STARTCHAR 032E
ENCODING 814
SWIDTH 0 0
DWIDTH 0 0
BBX 5 2 2 -3
BITMAP
88
70
ENDCHAR
STARTCHAR 0331
ENCODING 817
SWIDTH 0 0
DWIDTH 0 0
BBX 5 1 2 -2
BITMAP
F8
ENDCHAR
STARTCHAR 1E80
ENCODING 7808
SWIDTH 775 0
DWIDTH 14 0
BBX 13 15 0 0
BITMAP
0400
0200
0000
C208
4308
4508
4510
4510
4490
2890
2890
28A0
2860
3060
1060
ENDCHAR
STARTCHAR 1E81
ENCODING 7809
SWIDTH 609 0
DWIDTH 11 0
BBX 9 12 1 0
BITMAP
1800
0C00
0000
0000
8880
9880
9480
9480
5500
6300
6300
6300
ENDCHAR
STARTCHAR 1E82
ENCODING 7810
SWIDTH 775 0
DWIDTH 14 0
BBX 13 15 0 0
BITMAP
0080
0300
0000
C208
4308
4508
4510
4510
4490
2890
2890
28A0
2860
3060
1060
ENDCHAR
STARTCHAR 1E83
ENCODING 7811
SWIDTH 609 0
DWIDTH 11 0
BBX 9 12 1 0
BITMAP
0400
0800
1000
0000
8880
9880
9480
9480
5500
6300
6300
6300
ENDCHAR
STARTCHAR 1E84
ENCODING 7812
SWIDTH 775 0
DWIDTH 14 0
BBX 13 15 0 0
BITMAP
0080
0C80
0000
C208
4308
4508
4510
4510
4490
2890
2890
28A0
2860
3060
1060
ENDCHAR
STARTCHAR 1E85
ENCODING 7813
SWIDTH 609 0
DWIDTH 11 0
BBX 9 11 1 0
BITMAP
0200
3200
0000
8880
9880
9480
9480
5500
6300
6300
6300
ENDCHAR
STARTCHAR 1E9E
ENCODING 7838
SWIDTH 609 0
DWIDTH 11 0
BBX 9 12 1 0
BITMAP
3F00
4300
8200
8400
8800
8F00
8180
8080
8080
8080
8100
9E00
ENDCHAR
STARTCHAR 1EA0
ENCODING 7840
SWIDTH 553 0
DWIDTH 10 0
BBX 10 14 0 -2
BITMAP
0C00
0C00
0A00
1200
1200
1100
2100
2100
3F80
4080
4080
C040
0000
0C00
ENDCHAR
STARTCHAR 1EA1
ENCODING 7841
SWIDTH 498 0
DWIDTH 9 0
BBX 8 11 0 -3
BITMAP
3D
63
41
41
81
41
63
3D
00
08
08
ENDCHAR
STARTCHAR 1EA2
ENCODING 7842
SWIDTH 553 0
DWIDTH 10 0
BBX 10 16 0 0
BITMAP
1E00
0200
0600
0000
0C00
0C00
0A00
1200
1200
1100
2100
2100
3F80
4080
4080
C040
ENDCHAR
STARTCHAR 1EA3
ENCODING 7843
SWIDTH 498 0
DWIDTH 9 0
BBX 8 12 0 0
BITMAP
1C
04
04
08
3D
63
41
41
81
41
63
3D
ENDCHAR
STARTCHAR 1EA4
ENCODING 7844
SWIDTH 553 0
DWIDTH 10 0
BBX 10 17 0 1
BITMAP
0180
0000
0C00
1300
0000
0C00
0C00
0A00
1200
1200
1100
2100
2100
3F80
4080
4080
C040
ENDCHAR
STARTCHAR 1EA5
ENCODING 7845
SWIDTH 498 0
DWIDTH 9 0
BBX 8 15 0 1
BITMAP
0C
18
00
00
1C
36
00
3D
63
41
41
81
41
63
3D
ENDCHAR
STARTCHAR 1EA6
ENCODING 7846
SWIDTH 553 0
DWIDTH 10 0
BBX 10 17 0 1
BITMAP
0200
0180
0C00
1300
0000
0C00
0C00
0A00
1200
1200
1100
2100
2100
3F80
4080
4080
C040
ENDCHAR
STARTCHAR 1EA7
ENCODING 7847
SWIDTH 498 0
DWIDTH 9 0
BBX 8 15 0 1
BITMAP
18
04
00
00
1C
36
00
3D
63
41
41
81
41
63
3D
ENDCHAR
STARTCHAR 1EA8
ENCODING 7848
SWIDTH 553 0
DWIDTH 10 0
BBX 10 19 0 0
BITMAP
0700
0080
0080
0300
0C00
1300
0000
0C00
0C00
0A00
1200
1200
1100
2100
2100
3F80
4080
4080
C040
ENDCHAR
STARTCHAR 1EA9
ENCODING 7849
SWIDTH 498 0
DWIDTH 9 0
BBX 8 16 0 0
BITMAP
1C
04
04
04
08
08
36
00
3D
63
41
41
81
41
63
3D
ENDCHAR
STARTCHAR 1EAA
ENCODING 7850
SWIDTH 553 0
DWIDTH 10 0
BBX 10 18 0 0
BITMAP
1900
2600
0000
0C00
1300
0000
0C00
0C00
0A00
1200
1200
1100
2100
2100
3F80
4080
4080
C040
ENDCHAR
STARTCHAR 1EAB
ENCODING 7851
SWIDTH 498 0
DWIDTH 9 0
BBX 8 15 0 0
BITMAP
32
2E
00
00
1C
36
00
3D
63
41
41
81
41
63
3D
ENDCHAR
STARTCHAR 1EAC
ENCODING 7852
SWIDTH 553 0
DWIDTH 10 0
BBX 10 17 0 -2
BITMAP
0C00
1300
0000
0C00
0C00
0A00
1200
1200
1100
2100
2100
3F80
4080
4080
C040
0000
0C00
ENDCHAR
STARTCHAR 1EAD
ENCODING 7853
SWIDTH 498 0
DWIDTH 9 0
BBX 8 14 0 -3
BITMAP
1C
36
00
3D
63
41
41
81
41
63
3D
00
08
08
ENDCHAR
STARTCHAR 1EAE
ENCODING 7854
SWIDTH 553 0
DWIDTH 10 0
BBX 10 18 0 0
BITMAP
0200
0400
0800
1200
0E00
0000
0C00
0C00
0A00
1200
1200
1100
2100
2100
3F80
4080
4080
C040
ENDCHAR
STARTCHAR 1EAF
ENCODING 7855
SWIDTH 498 0
DWIDTH 9 0
BBX 8 15 0 0
BITMAP
04
08
10
00
22
1C
00
3D
63
41
41
81
41
63
3D
ENDCHAR
STARTCHAR 1EB0
ENCODING 7856
SWIDTH 553 0
DWIDTH 10 0
BBX 10 18 0 0
BITMAP
1000
0C00
0000
1200
0E00
0000
0C00
0C00
0A00
1200
1200
1100
2100
2100
3F80
4080
4080
C040
ENDCHAR
STARTCHAR 1EB1
ENCODING 7857
SWIDTH 498 0
DWIDTH 9 0
BBX 8 15 0 0
BITMAP
10
0C
00
00
22
1C
00
3D
63
41
41
81
41
63
3D
ENDCHAR
STARTCHAR 1EB2
ENCODING 7858
SWIDTH 553 0
DWIDTH 10 0
BBX 10 19 0 0
BITMAP
0C00
0200
0200
0400
1200
0E00
0000
0C00
0C00
0A00
1200
1200
1100
2100
2100
3F80
4080
4080
C040
ENDCHAR
STARTCHAR 1EB3
ENCODING 7859
SWIDTH 498 0
DWIDTH 9 0
BBX 8 16 0 0
BITMAP
1C
04
04
04
08
22
1C
00
3D
63
41
41
81
41
63
3D
ENDCHAR
STARTCHAR 1EB4
ENCODING 7860
SWIDTH 553 0
DWIDTH 10 0
BBX 10 17 0 0
BITMAP
1900
2600
0200
1E00
0000
0C00
0C00
0A00
1200
1200
1100
2100
2100
3F80
4080
4080
C040
ENDCHAR
STARTCHAR 1EB5
ENCODING 7861
SWIDTH 498 0
DWIDTH 9 0
BBX 8 15 0 0
BITMAP
11
3E
00
00
22
1C
00
3D
63
41
41
81
41
63
3D
ENDCHAR
STARTCHAR 1EB6
ENCODING 7862
SWIDTH 553 0
DWIDTH 10 0
BBX 10 17 0 -2
BITMAP
1200
0E00
0000
0C00
0C00
0A00
1200
1200
1100
2100
2100
3F80
4080
4080
C040
0000
0C00
ENDCHAR
STARTCHAR 1EB7
ENCODING 7863
SWIDTH 498 0
DWIDTH 9 0
BBX 8 14 0 -3
BITMAP
22
1C
00
3D
63
41
41
81
41
63
3D
00
08
08
ENDCHAR
STARTCHAR 1EB8
ENCODING 7864
SWIDTH 498 0
DWIDTH 9 0
BBX 7 14 1 -2
BITMAP
FE
80
80
80
80
FE
80
80
80
80
80
FE
00
30
ENDCHAR
STARTCHAR 1EB9
ENCODING 7865
SWIDTH 443 0
DWIDTH 8 0
BBX 8 10 0 -3
BITMAP
3C
42
42
FF
40
40
42
3C
00
18
ENDCHAR
STARTCHAR 1EBA
ENCODING 7866
SWIDTH 498 0
DWIDTH 9 0
BBX 7 16 1 0
BITMAP
38
08
08
10
FE
80
80
80
80
FE
80
80
80
80
80
FE
ENDCHAR
STARTCHAR 1EBB
ENCODING 7867
SWIDTH 443 0
DWIDTH 8 0
BBX 8 12 0 0
BITMAP
3C
04
04
08
3C
42
42
FF
40
40
42
3C
ENDCHAR
STARTCHAR 1EBC
ENCODING 7868
SWIDTH 498 0
DWIDTH 9 0
BBX 7 15 1 0
BITMAP
24
7C
00
FE
80
80
80
80
FE
80
80
80
80
80
FE
ENDCHAR
STARTCHAR 1EBD
ENCODING 7869
SWIDTH 443 0
DWIDTH 8 0
BBX 8 12 0 0
BITMAP
12
3E
00
00
3C
42
42
FF
40
40
42
3C
ENDCHAR
STARTCHAR 1EBE
ENCODING 7870
SWIDTH 498 0
DWIDTH 9 0
BBX 8 18 1 0
BITMAP
01
02
04
38
44
00
FE
80
80
80
80
FE
80
80
80
80
80
FE
ENDCHAR
STARTCHAR 1EBF
ENCODING 7871
SWIDTH 443 0
DWIDTH 8 0
BBX 8 15 0 1
BITMAP
0C
10
00
00
18
26
00
3C
42
42
FF
40
40
42
3C
ENDCHAR
STARTCHAR 1EC0
ENCODING 7872
SWIDTH 498 0
DWIDTH 9 0
BBX 7 18 1 0
BITMAP
08
0C
02
38
6C
00
FE
80
80
80
80
FE
80
80
80
80
80
FE
ENDCHAR
STARTCHAR 1EC1
ENCODING 7873
SWIDTH 443 0
DWIDTH 8 0
BBX 8 15 0 1
BITMAP
18
0C
00
00
18
26
00
3C
42
42
FF
40
40
42
3C
ENDCHAR
STARTCHAR 1EC2
ENCODING 7874
SWIDTH 498 0
DWIDTH 9 0
BBX 7 19 1 0
BITMAP
0E
02
02
04
38
64
00
FE
80
80
80
80
FE
80
80
80
80
80
FE
ENDCHAR
STARTCHAR 1EC3
ENCODING 7875
SWIDTH 443 0
DWIDTH 8 0
BBX 8 16 0 0
BITMAP
18
04
04
08
00
18
24
00
3C
42
42
FF
40
40
42
3C
ENDCHAR
STARTCHAR 1EC4
ENCODING 7876
SWIDTH 498 0
DWIDTH 9 0
BBX 7 18 1 0
BITMAP
24
5C
10
38
44
00
FE
80
80
80
80
FE
80
80
80
80
80
FE
ENDCHAR
STARTCHAR 1EC5
ENCODING 7877
SWIDTH 443 0
DWIDTH 8 0
BBX 8 15 0 0
BITMAP
32
4C
00
00
18
26
00
3C
42
42
FF
40
40
42
3C
ENDCHAR
STARTCHAR 1EC6
ENCODING 7878
SWIDTH 498 0
DWIDTH 9 0
BBX 7 17 1 -2
BITMAP
38
6C
00
FE
80
80
80
80
FE
80
80
80
80
80
FE
00
30
ENDCHAR
STARTCHAR 1EC7
ENCODING 7879
SWIDTH 443 0
DWIDTH 8 0
BBX 8 13 0 -3
BITMAP
18
26
00
3C
42
42
FF
40
40
42
3C
00
18
ENDCHAR
STARTCHAR 1EC8
ENCODING 7880
SWIDTH 221 0
DWIDTH 4 0
BBX 4 16 0 0
BITMAP
E0
10
20
00
40
40
40
40
40
40
40
40
40
40
40
40
ENDCHAR
STARTCHAR 1EC9
ENCODING 7881
SWIDTH 166 0
DWIDTH 3 0
BBX 3 13 0 0
BITMAP
C0
20
20
20
40
40
40
40
40
40
40
40
40
ENDCHAR
STARTCHAR 1ECA
ENCODING 7882
SWIDTH 221 0
DWIDTH 4 0
BBX 1 14 1 -2
BITMAP
80
80
80
80
80
80
80
80
80
80
80
80
00
80
ENDCHAR
STARTCHAR 1ECB
ENCODING 7883
SWIDTH 221 0
DWIDTH 4 0
BBX 2 14 1 -3
BITMAP
C0
80
00
00
80
80
80
80
80
80
80
80
00
80
ENDCHAR
STARTCHAR 1ECC
ENCODING 7884
SWIDTH 720 0
DWIDTH 13 0
BBX 12 16 0 -4
BITMAP
0F80
30C0
6020
4030
4010
8010
8010
4010
4030
6020
3040
0F80
0000
0000
0000
0200
ENDCHAR
STARTCHAR 1ECD
ENCODING 7885
SWIDTH 498 0
DWIDTH 9 0
BBX 8 11 0 -3
BITMAP
3C
62
41
41
81
41
62
3C
00
00
08
ENDCHAR
STARTCHAR 1ECE
ENCODING 7886
SWIDTH 720 0
DWIDTH 13 0
BBX 12 16 0 0
BITMAP
0F00
0100
0100
0200
0F80
30C0
6020
4030
4010
8010
8010
4010
4030
6020
3040
0F80
ENDCHAR
STARTCHAR 1ECF
ENCODING 7887
SWIDTH 498 0
DWIDTH 9 0
BBX 8 12 0 0
BITMAP
3C
04
04
08
3C
62
41
41
81
41
62
3C
ENDCHAR
STARTCHAR 1ED0
ENCODING 7888
SWIDTH 720 0
DWIDTH 13 0
BBX 12 17 0 1
BITMAP
0060
0080
0600
0980
0000
0F80
30C0
6020
4030
4010
8010
8010
4010
4030
6020
3040
0F80
ENDCHAR
STARTCHAR 1ED1
ENCODING 7889
SWIDTH 498 0
DWIDTH 9 0
BBX 8 15 0 1
BITMAP
0C
10
00
00
18
26
00
3C
62
41
41
81
41
62
3C
ENDCHAR
STARTCHAR 1ED2
ENCODING 7890
SWIDTH 720 0
DWIDTH 13 0
BBX 12 17 0 0
BITMAP
0100
00C0
0600
0D00
0000
0F80
30C0
6020
4030
4010
8010
8010
4010
4030
6020
3040
0F80
ENDCHAR
STARTCHAR 1ED3
ENCODING 7891
SWIDTH 498 0
DWIDTH 9 0
BBX 8 15 0 1
BITMAP
18
04
00
00
18
26
00
3C
62
41
41
81
41
62
3C
ENDCHAR
STARTCHAR 1ED4
ENCODING 7892
SWIDTH 720 0
DWIDTH 13 0
BBX 12 19 0 0
BITMAP
0180
0040
0040
0080
0600
0D00
0000
0F80
30C0
6020
4030
4010
8010
8010
4010
4030
6020
3040
0F80
ENDCHAR
STARTCHAR 1ED5
ENCODING 7893
SWIDTH 498 0
DWIDTH 9 0
BBX 8 16 0 0
BITMAP
18
04
04
04
08
08
36
00
3C
62
41
41
81
41
62
3C
ENDCHAR
STARTCHAR 1ED6
ENCODING 7894
SWIDTH 720 0
DWIDTH 13 0
BBX 12 18 0 0
BITMAP
0480
0F80
1100
0200
0D00
0000
0F80
30C0
6020
4030
4010
8010
8010
4010
4030
6020
3040
0F80
ENDCHAR
STARTCHAR 1ED7
ENCODING 7895
SWIDTH 498 0
DWIDTH 9 0
BBX 8 15 0 0
BITMAP
32
2E
00
00
18
26
00
3C
62
41
41
81
41
62
3C
ENDCHAR
STARTCHAR 1ED8
ENCODING 7896
SWIDTH 720 0
DWIDTH 13 0
BBX 12 19 0 -4
BITMAP
0600
0D00
0000
0F80
30C0
6020
4030
4010
8010
8010
4010
4030
6020
3040
0F80
0000
0000
0000
0200
ENDCHAR
STARTCHAR 1ED9
ENCODING 7897
SWIDTH 498 0
DWIDTH 9 0
BBX 8 14 0 -3
BITMAP
18
26
00
3C
62
41
41
81
41
62
3C
00
00
08
ENDCHAR
STARTCHAR 1EDA
ENCODING 7898
SWIDTH 720 0
DWIDTH 13 0
BBX 13 16 0 0
BITMAP
0100
0600
0000
0000
0F08
10D0
2020
4020
4010
8010
8010
4010
4010
6020
3040
0F80
ENDCHAR
STARTCHAR 1EDB
ENCODING 7899
SWIDTH 498 0
DWIDTH 9 0
BBX 9 12 0 0
BITMAP
0400
0800
1000
0080
3C80
6300
4100
4100
8100
4100
6200
3C00
ENDCHAR
STARTCHAR 1EDC
ENCODING 7900
SWIDTH 720 0
DWIDTH 13 0
BBX 13 16 0 0
BITMAP
0400
0200
0100
0000
0F08
10D0
2020
4020
4010
8010
8010
4010
4010
6020
3040
0F80
ENDCHAR
STARTCHAR 1EDD
ENCODING 7901
SWIDTH 498 0
DWIDTH 9 0
BBX 9 12 0 0
BITMAP
1000
0800
0400
0080
3C80
6300
4100
4100
8100
4100
6200
3C00
ENDCHAR
STARTCHAR 1EDE
ENCODING 7902
SWIDTH 720 0
DWIDTH 13 0
BBX 13 16 0 0
BITMAP
0F00
0100
0100
0200
0F08
10D0
2020
4020
4010
8010
8010
4010
4010
6020
3040
0F80
ENDCHAR
STARTCHAR 1EDF
ENCODING 7903
SWIDTH 498 0
DWIDTH 9 0
BBX 9 12 0 0
BITMAP
3C00
0400
0400
0880
3C80
6300
4100
4100
8100
4100
6200
3C00
ENDCHAR
STARTCHAR 1EE0
ENCODING 7904
SWIDTH 720 0
DWIDTH 13 0
BBX 13 16 0 0
BITMAP
0480
0F80
0100
0000
0F08
10D0
2020
4020
4010
8010
8010
4010
4010
6020
3040
0F80
ENDCHAR
STARTCHAR 1EE1
ENCODING 7905
SWIDTH 498 0
DWIDTH 9 0
BBX 9 12 0 0
BITMAP
1200
3E00
0480
0080
3C80
6300
4100
4100
8100
4100
6200
3C00
ENDCHAR
STARTCHAR 1EE2
ENCODING 7906
SWIDTH 720 0
DWIDTH 13 0
BBX 13 16 0 -3
BITMAP
0F08
10D0
2020
4020
4010
8010
8010
4010
4010
6020
3040
0F80
0000
0000
0000
0200
ENDCHAR
STARTCHAR 1EE3
ENCODING 7907
SWIDTH 498 0
DWIDTH 9 0
BBX 9 12 0 -3
BITMAP
0080
3C80
6300
4100
4100
8100
4100
6200
3C00
0000
0000
0800
ENDCHAR
STARTCHAR 1EE4
ENCODING 7908
SWIDTH 609 0
DWIDTH 11 0
BBX 9 14 1 -2
BITMAP
8080
8080
8080
8080
8080
8080
8080
8080
8080
C100
4300
3E00
0000
0800
ENDCHAR
STARTCHAR 1EE5
ENCODING 7909
SWIDTH 498 0
DWIDTH 9 0
BBX 7 10 1 -3
BITMAP
82
82
82
82
82
84
C4
78
00
10
ENDCHAR
STARTCHAR 1EE6
ENCODING 7910
SWIDTH 609 0
DWIDTH 11 0
BBX 9 16 1 0
BITMAP
1C00
0400
0400
0800
8080
8080
8080
8080
8080
8080
8080
8080
8080
C100
4300
3E00
ENDCHAR
STARTCHAR 1EE7
ENCODING 7911
SWIDTH 498 0
DWIDTH 9 0
BBX 7 13 1 0
BITMAP
30
08
08
18
00
82
82
82
82
82
84
C4
78
ENDCHAR
STARTCHAR 1EE8
ENCODING 7912
SWIDTH 720 0
DWIDTH 13 0
BBX 12 16 1 0
BITMAP
0400
1800
0010
0010
80E0
8080
8080
8080
8080
8080
8080
8080
8080
C100
4300
3E00
ENDCHAR
STARTCHAR 1EE9
ENCODING 7913
SWIDTH 553 0
DWIDTH 10 0
BBX 9 12 1 0
BITMAP
1800
3000
0000
0080
8380
8200
8200
8200
8200
8400
C400
7800
ENDCHAR
STARTCHAR 1EEA
ENCODING 7914
SWIDTH 720 0
DWIDTH 13 0
BBX 12 16 1 0
BITMAP
1000
0C00
0010
0010
80E0
8080
8080
8080
8080
8080
8080
8080
8080
C100
4300
3E00
ENDCHAR
STARTCHAR 1EEB
ENCODING 7915
SWIDTH 553 0
DWIDTH 10 0
BBX 9 12 1 0
BITMAP
2000
1800
0000
0080
8380
8200
8200
8200
8200
8400
C400
7800
ENDCHAR
STARTCHAR 1EEC
ENCODING 7916
SWIDTH 720 0
DWIDTH 13 0
BBX 12 17 1 0
BITMAP
1800
0400
0400
0410
0810
80E0
8080
8080
8080
8080
8080
8080
8080
8080
C100
4300
3E00
ENDCHAR
STARTCHAR 1EED
ENCODING 7917
SWIDTH 553 0
DWIDTH 10 0
BBX 9 13 1 0
BITMAP
3000
0800
0800
1880
0080
8380
8200
8200
8200
8200
8400
C400
7800
ENDCHAR
STARTCHAR 1EEE
ENCODING 7918
SWIDTH 720 0
DWIDTH 13 0
BBX 12 16 1 0
BITMAP
1200
2E00
0010
0010
80E0
8080
8080
8080
8080
8080
8080
8080
8080
C100
4300
3E00
ENDCHAR
STARTCHAR 1EEF
ENCODING 7919
SWIDTH 553 0
DWIDTH 10 0
BBX 9 12 1 0
BITMAP
2400
5C00
0080
0080
8380
8200
8200
8200
8200
8400
C400
7800
ENDCHAR
STARTCHAR 1EF0
ENCODING 7920
SWIDTH 720 0
DWIDTH 13 0
BBX 12 17 1 -3
BITMAP
0010
0010
80E0
8080
8080
8080
8080
8080
8080
8080
8080
C100
4300
3E00
0000
0800
0800
ENDCHAR
STARTCHAR 1EF1
ENCODING 7921
SWIDTH 553 0
DWIDTH 10 0
BBX 9 11 1 -2
BITMAP
0080
8380
8200
8200
8200
8200
8400
C400
7800
0000
1000
ENDCHAR
STARTCHAR 1EF2
ENCODING 7922
SWIDTH 553 0
DWIDTH 10 0
BBX 9 15 0 0
BITMAP
3000
0800
0000
C080
4100
6100
2200
3200
1400
1C00
0800
0800
0800
0800
0800
ENDCHAR
STARTCHAR 1EF3
ENCODING 7923
SWIDTH 443 0
DWIDTH 8 0
BBX 7 16 0 -4
BITMAP
30
08
00
00
82
42
42
24
24
28
18
10
10
10
20
20
ENDCHAR
STARTCHAR 1EF4
ENCODING 7924
SWIDTH 553 0
DWIDTH 10 0
BBX 9 14 0 -2
BITMAP
C080
4100
6100
2200
3200
1400
1C00
0800
0800
0800
0800
0800
0000
0800
ENDCHAR
STARTCHAR 1EF5
ENCODING 7925
SWIDTH 443 0
DWIDTH 8 0
BBX 7 12 0 -4
BITMAP
82
42
42
24
24
28
18
10
10
18
20
20
ENDCHAR
STARTCHAR 1EF6
ENCODING 7926
SWIDTH 553 0
DWIDTH 10 0
BBX 9 16 0 0
BITMAP
1C00
0400
0400
0000
C080
4100
6100
2200
3200
1400
1C00
0800
0800
0800
0800
0800
ENDCHAR
STARTCHAR 1EF7
ENCODING 7927
SWIDTH 443 0
DWIDTH 8 0
BBX 7 17 0 -4
BITMAP
38
04
04
08
00
82
42
42
24
24
28
18
10
10
10
20
20
ENDCHAR
STARTCHAR 1EF8
ENCODING 7928
SWIDTH 553 0
DWIDTH 10 0
BBX 9 15 0 0
BITMAP
1200
3E00
0000
C080
4100
6100
2200
3200
1400
1C00
0800
0800
0800
0800
0800
ENDCHAR
STARTCHAR 1EF9
ENCODING 7929
SWIDTH 443 0
DWIDTH 8 0
BBX 7 16 0 -4
BITMAP
22
5C
00
00
82
42
42
24
24
28
18
10
10
10
20
20
ENDCHAR
STARTCHAR 2013
ENCODING 8211
SWIDTH 443 0
DWIDTH 8 0
BBX 7 1 0 4
BITMAP
FE
ENDCHAR
STARTCHAR 2014
ENCODING 8212
SWIDTH 775 0
DWIDTH 14 0
BBX 14 1 0 4
BITMAP
FFFC
ENDCHAR
STARTCHAR 2018
ENCODING 8216
SWIDTH 221 0
DWIDTH 4 0
BBX 2 4 1 8
BITMAP
40
80
C0
C0
ENDCHAR
STARTCHAR 2019
ENCODING 8217
SWIDTH 221 0
DWIDTH 4 0
BBX 3 4 0 8
BITMAP
60
E0
20
40
ENDCHAR
STARTCHAR 201A
ENCODING 8218
SWIDTH 221 0
DWIDTH 4 0
BBX 2 4 1 -2
BITMAP
C0
C0
40
80
ENDCHAR
STARTCHAR 201C
ENCODING 8220
SWIDTH 443 0
DWIDTH 8 0
BBX 6 4 1 8
BITMAP
48
88
EC
CC
ENDCHAR
STARTCHAR 201D
ENCODING 8221
SWIDTH 443 0
DWIDTH 8 0
BBX 6 4 1 8
BITMAP
D8
DC
48
88
ENDCHAR
STARTCHAR 201E
ENCODING 8222
SWIDTH 387 0
DWIDTH 7 0
BBX 6 4 1 -2
BITMAP
D8
DC
48
90
ENDCHAR
STARTCHAR 2020
ENCODING 8224
SWIDTH 387 0
DWIDTH 7 0
BBX 5 15 1 -2
BITMAP
20
20
20
20
F8
20
20
20
20
20
20
20
20
20
20
ENDCHAR
STARTCHAR 2021
ENCODING 8225
SWIDTH 443 0
DWIDTH 8 0
BBX 6 15 1 -2
BITMAP
20
20
20
20
FC
20
20
20
FC
20
20
20
20
20
20
ENDCHAR
STARTCHAR 2022
ENCODING 8226
SWIDTH 498 0
DWIDTH 9 0
BBX 3 3 3 4
BITMAP
C0
E0
E0
ENDCHAR
STARTCHAR 2026
ENCODING 8230
SWIDTH 720 0
DWIDTH 13 0
BBX 11 2 1 0
BITMAP
C660
C660
ENDCHAR
STARTCHAR 2030
ENCODING 8240
SWIDTH 830 0
DWIDTH 15 0
BBX 15 12 0 0
BITMAP
1800
240C
2410
2460
1880
0300
0400
1B08
24B6
C8A2
04A2
031C
ENDCHAR
STARTCHAR 2039
ENCODING 8249
SWIDTH 276 0
DWIDTH 5 0
BBX 3 6 1 2
BITMAP
40
40
80
80
40
20
ENDCHAR
STARTCHAR 203A
ENCODING 8250
SWIDTH 276 0
DWIDTH 5 0
BBX 3 6 1 2
BITMAP
80
40
20
40
80
80
ENDCHAR
STARTCHAR 2044
ENCODING 8260
SWIDTH 221 0
DWIDTH 4 0
BBX 7 12 -2 0
BITMAP
02
02
04
08
08
10
10
20
40
40
80
80
ENDCHAR
STARTCHAR 2074
ENCODING 8308
SWIDTH 221 0
DWIDTH 4 0
BBX 3 5 0 7
BITMAP
20
20
E0
A0
60
ENDCHAR
STARTCHAR 20A1
ENCODING 8353
SWIDTH 553 0
DWIDTH 10 0
BBX 9 15 0 -2
BITMAP
0180
0F80
3380
6500
4600
4A00
8A00
8C00
5400
5800
6800
3080
5F00
5000
6000
ENDCHAR
STARTCHAR 20A3
ENCODING 8355
SWIDTH 443 0
DWIDTH 8 0
BBX 7 12 0 0
BITMAP
7E
40
40
40
40
7E
40
40
F8
40
40
40
ENDCHAR
STARTCHAR 20A4
ENCODING 8356
SWIDTH 609 0
DWIDTH 11 0
BBX 8 12 1 0
BITMAP
3E
63
41
40
40
FC
20
FC
20
70
89
87
ENDCHAR
STARTCHAR 20A6
ENCODING 8358
SWIDTH 664 0
DWIDTH 12 0
BBX 11 12 0 0
BITMAP
6040
7040
5040
4840
4C40
FFE0
4240
4240
4140
41C0
40C0
4040
ENDCHAR
STARTCHAR 20A7
ENCODING 8359
SWIDTH 498 0
DWIDTH 9 0
BBX 9 12 0 0
BITMAP
7C00
4300
4100
FF80
4100
4300
7C00
4000
4000
4000
4000
4000
ENDCHAR
STARTCHAR 20A9
ENCODING 8361
SWIDTH 775 0
DWIDTH 14 0
BBX 13 12 0 0
BITMAP
C208
4308
4508
4510
4490
FFF8
2890
2890
2860
2860
3060
1060
ENDCHAR
STARTCHAR 20AB
ENCODING 8363
SWIDTH 498 0
DWIDTH 9 0
BBX 8 15 1 -2
BITMAP
02
02
1F
02
02
3A
C6
82
82
82
82
C6
7A
00
7C
ENDCHAR
STARTCHAR 20AC
ENCODING 8364
SWIDTH 664 0
DWIDTH 12 0
BBX 11 12 0 0
BITMAP
07C0
1820
2000
2000
FF80
4000
FF80
6000
2000
3000
1820
07C0
ENDCHAR
STARTCHAR 20AD
ENCODING 8365
SWIDTH 498 0
DWIDTH 9 0
BBX 8 12 0 0
BITMAP
42
46
44
48
50
FF
50
58
48
44
42
41
ENDCHAR
STARTCHAR 20B1
ENCODING 8369
SWIDTH 498 0
DWIDTH 9 0
BBX 9 12 0 0
BITMAP
7C00
4200
4100
FF80
4100
FF80
4100
4200
7C00
4000
4000
4000
ENDCHAR
STARTCHAR 20B2
ENCODING 8370
SWIDTH 720 0
DWIDTH 13 0
BBX 12 15 0 -2
BITMAP
0200
0F80
32C0
2220
4200
4200
8200
83F0
4210
4210
6220
3240
0F80
0200
0200
ENDCHAR
STARTCHAR 20B5
ENCODING 8373
SWIDTH 553 0
DWIDTH 10 0
BBX 9 15 0 -2
BITMAP
0400
1F00
3480
6400
4400
4400
8400
8400
4400
4400
6400
3480
1F00
0400
0400
ENDCHAR
STARTCHAR 20B9
ENCODING 8377
SWIDTH 553 0
DWIDTH 10 0
BBX 8 12 1 0
BITMAP
FF
04
04
FF
04
04
F8
40
20
10
08
04
ENDCHAR
STARTCHAR 20BA
ENCODING 8378
SWIDTH 443 0
DWIDTH 8 0
BBX 7 12 0 0
BITMAP
40
40
40
4C
70
CC
70
C0
42
42
46
78
ENDCHAR
STARTCHAR 20BC
ENCODING 8380
SWIDTH 498 0
DWIDTH 9 0
BBX 7 13 1 0
BITMAP
10
38
54
96
92
92
92
92
92
92
92
92
92
ENDCHAR
STARTCHAR 20BD
ENCODING 8381
SWIDTH 498 0
DWIDTH 9 0
BBX 9 12 -1 0
BITMAP
3E00
2180
2080
2080
2080
2180
FE00
2000
2000
F800
2000
2000
ENDCHAR
STARTCHAR 2116
ENCODING 8470
SWIDTH 1163 0
DWIDTH 21 0
BBX 19 12 1 0
BITMAP
C08780
C08840
A08820
909020
909020
888820
8C8C40
848780
828000
828000
818000
809FE0
ENDCHAR
STARTCHAR 2122
ENCODING 8482
SWIDTH 387 0
DWIDTH 7 0
BBX 5 4 1 8
BITMAP
A8
98
B8
20
ENDCHAR
STARTCHAR 2212
ENCODING 8722
SWIDTH 498 0
DWIDTH 9 0
BBX 9 1 0 5
BITMAP
FF80
ENDCHAR
STARTCHAR 2215
ENCODING 8725
SWIDTH 498 0
DWIDTH 9 0
BBX 6 14 1 -1
BITMAP
04
04
08
08
08
10
10
20
20
40
40
40
80
80
ENDCHAR
STARTCHAR 2219
ENCODING 8729
SWIDTH 498 0
DWIDTH 9 0
BBX 3 3 3 4
BITMAP
C0
E0
E0
ENDCHAR
STARTCHAR 2248
ENCODING 8776
SWIDTH 609 0
DWIDTH 11 0
BBX 8 7 1 1
BITMAP
71
C9
86
00
71
C9
86
ENDCHAR
STARTCHAR 2260
ENCODING 8800
SWIDTH 553 0
DWIDTH 10 0
BBX 7 9 1 1
BITMAP
04
08
FE
10
20
FE
40
40
80
ENDCHAR
STARTCHAR 2264
ENCODING 8804
SWIDTH 553 0
DWIDTH 10 0
BBX 9 11 0 1
BITMAP
0300
0C00
3000
4000
6000
1800
0600
0100
0000
0000
FF80
ENDCHAR
STARTCHAR 2265
ENCODING 8805
SWIDTH 553 0
DWIDTH 10 0
BBX 9 11 0 1
BITMAP
6000
1800
0600
0180
0300
0C00
3000
4000
0000
0000
FF80
ENDCHAR
STARTCHAR FB01
ENCODING 64257
SWIDTH 553 0
DWIDTH 10 0
BBX 8 13 0 0
BITMAP
1C
21
21
20
20
F9
21
21
21
21
21
21
21
ENDCHAR
STARTCHAR FB02
ENCODING 64258
SWIDTH 498 0
DWIDTH 9 0
BBX 8 13 0 0
BITMAP
1D
21
21
21
21
F9
21
21
21
21
21
21
21
ENDCHAR
ENDFONT
